<svg xmlns="http://www.w3.org/2000/svg" xmlns:xlink="http://www.w3.org/1999/xlink" viewBox="0 0 1920.01 1080"><defs><style>.cls-1{fill:red;}.cls-2{fill:blue;}.cls-3{fill:#fff;}.cls-4{opacity:0.5;}.cls-5{fill:gray;}.cls-6,.cls-7{fill:#fff2e6;}.cls-6{stroke:#fff2e6;}.cls-11,.cls-6,.cls-8,.cls-9{stroke-miterlimit:10;}.cls-11,.cls-8,.cls-9{stroke:#000;}.cls-8,.cls-9{stroke-width:10px;}.cls-8{fill:url(#New_Gradient_Swatch);}.cls-11,.cls-9{fill:none;}.cls-10{opacity:0.1;}.cls-11{stroke-width:3px;}</style><linearGradient id="New_Gradient_Swatch" x1="890.67" y1="244.53" x2="289.15" y2="1148.17" gradientTransform="translate(128.91 -171.24) rotate(11.35)" gradientUnits="userSpaceOnUse"><stop offset="0" stop-color="#fff"/><stop offset="0.5" stop-color="#5d5dff"/><stop offset="0.99" stop-color="red"/></linearGradient></defs><title>Startskaerm</title><g id="Layer_2" data-name="Layer 2"><g id="Layer_1-2" data-name="Layer 1"><rect class="cls-1" x="0.01" y="697" width="1920" height="383"/><polygon class="cls-2" points="0 700.09 1920.01 700.09 1920.01 326.09 0.01 326 0 700.09"/><polygon class="cls-3" points="0.46 343.73 1920.01 343.73 1920.01 0 0.01 0.2 0.46 343.73"/><g class="cls-4"><path class="cls-5" d="M1299.07,630.11c-2.48-17.9-8.46-35.41-8.53-53.6l-11.18,3c2,4.35,5,8,8,11.64,2.62,3.22,5.41,6.56,5.34,10.9l11.78-1.6c-3.7-16.22-13.31-32.55-10.84-49.63l-11.78-1.59c-.22,4.33,1.15,8.2,3,12.07,1.67,3.59,4,7,3.84,11.11-.34,6.63,10.7,8.34,11.78,1.59,3.18-19.71-.23-39.7.22-59.52.15-6.82-10-8.08-11.79-1.6-5.61,19.94-14.49,38.88-20.1,58.82l11.79,1.59c-.82-17.2,4.31-34.72,10.2-50.7s13.5-32.69,25.32-45.07l-10-5.84-2.12,9.16,11.58,3.19c3.31-15.78,14.65-27.84,24.93-39.62,10.74-12.31,22.09-24.55,36.64-32.4,28.59-15.42,63.11-12.49,93.14-3.27,19.47,6,38,14.55,56.42,23.11l3-11.18c-39.51-1.19-80.44-2.37-117.41-18l-1.43,11c13.09-2.87,26.18,1,38.84,4.23a123.8,123.8,0,0,0,29,3.93,313.82,313.82,0,0,0,58.75-5.27c4.82-.86,6.12-9,1.43-11-24.36-10.36-51.88-10.57-76.19-20.9l-3,11.18c41.88-2.73,84,.63,125.84-2.11,7.71-.5,7.74-11.51,0-12-43.52-2.75-87.44-6.05-131-3.58-10.25.58-20.67,1.43-30.66,3.91-6.64,1.64-5.12,11.71,1.59,11.78,51.82.54,103.91,6.12,155,14.37V396.66l-58.66,17.83,4.62,11a225.75,225.75,0,0,1,56.86-17.3c7-1.17,4.78-11.38-1.59-11.78l-65.29-4.09c-7-.44-7.78,9.76-1.59,11.79a112.74,112.74,0,0,0,35.23,5.69c12.44,0,24.16-3.56,36.44-4.58s21.18,4.95,30.8,11.91a214.18,214.18,0,0,1,23.7,20c29.36,28.49,52.1,66.08,57.6,107.12a214.59,214.59,0,0,1,1.71,35.11c-.48,14.35-3.79,28.59-4.69,43-.48,7.71,11.52,7.68,12,0,.83-13.32,3.58-26.41,4.52-39.69.8-11.17.07-22.8-1-33.93a176.26,176.26,0,0,0-18.2-61.42,218,218,0,0,0-37.92-53.1,231.45,231.45,0,0,0-24.25-21.85c-8.51-6.63-17.78-14.25-28.19-17.57-13.82-4.42-27.91,1-41.69,2.49a102.18,102.18,0,0,1-42.84-4.7l-1.6,11.78,65.29,4.09-1.6-11.79a237,237,0,0,0-59.73,18.51c-6.21,2.84-1.8,12.92,4.63,11l58.66-17.83c5.22-1.58,6.19-10.57,0-11.57-52.18-8.43-105.33-14.25-158.23-14.8l1.6,11.79c18.82-4.66,39.17-4.24,58.41-4.18,23.33.08,46.66,1.11,70,2.43,10.06.57,20.11,1.22,30.16,1.85v-12c-41.87,2.74-84-.62-125.84,2.11-5.27.34-9,8.64-3,11.18,24.37,10.36,51.89,10.57,76.2,20.9l1.43-11a288.52,288.52,0,0,1-58.29,4.78c-23.17-.66-44.86-12.81-68.28-7.67-4.69,1-6.24,8.93-1.43,11,39.11,16.54,81.59,18.38,123.46,19.64,5.69.17,8.53-8.63,3-11.18-33.88-15.73-69.09-31.93-107.17-32.33-17-.18-33.92,2.85-49.38,9.94-16.14,7.4-29.08,19.82-40.76,32.92-12.74,14.3-27.38,29.45-31.46,48.82-1.58,7.51,9.83,10.75,11.58,3.19l2.12-9.16c1.3-5.63-5.73-10.35-10-5.84-13,13.61-21.35,31.59-27.9,49s-12,36.58-11.14,55.26c.32,6.64,9.9,8.3,11.78,1.6,5.61-19.94,14.49-38.88,20.1-58.82l-11.78-1.59c-.42,18.63,3.19,37.83.21,56.33l11.79,1.6c.21-4.34-1.16-8.2-3-12.07-1.67-3.6-4-7-3.83-11.11.33-6.63-10.81-8.36-11.79-1.6-2.9,20,6.51,37.05,10.84,56,1.54,6.72,11.67,5.06,11.79-1.59.21-12.11-10.42-18.48-15-28.59-2.53-5.63-11.2-2.56-11.18,3,.08,19.28,6.33,37.82,9,56.79,1.06,7.62,12.62,4.38,11.57-3.19Z"/><ellipse class="cls-6" cx="1278.08" cy="692.5" rx="32.55" ry="67.37" transform="translate(-136.02 355.8) rotate(-15.06)"/><path class="cls-6" d="M1396.06,418.68l-25.23,18.72L1338.27,470l-22.78,35.81.81,59.42L1331,607.5l3.25,22.78v4.89h-11.39l-3.26-4.89-4.88-21.16-3.25,50.46L1316.3,754s29.3,14.65,32.55,21.16,1.63,45.58,1.63,45.58l-3.25,4.88-8.14,1.63-5.34-25.63.08-19.14-19.16-9v39.07l8.14,39.06,11.39,34.19,19.54,26,11.39,14.65-4.88-48.83s3.25-11.4,17.9,0l1.63,34.18,4.88,30.93L1427,965.59l26,2.17,34.94,3.91,41.64.44,48.83-16.28,30.12-23.59-2.45-28.5,9.15-32.15s8.76-8.92,15.27,6.11l-6.51,22.79-1.63,27.67,44-40.7,7.59-47.1,1-65.48-23.23,10,1.63,39.06s-1.63,17.91-16.28,0l1.63-45.57,8.14-3.26,19.53-13,11.39-14.65,1.14-58.53.49-92.85-11.39,35.81s-6.51,17.91-14.65-1.63l12-46.52,17.28-21.84-10-49.66-28.32-52.62-36.53-39.33-50.46,9.76-26.86,12.74-39.18,2.42-45-9.36-30.61-12.31Z"/><path class="cls-7" d="M1694.79,761.89a149.2,149.2,0,0,0,27-43.82c6.84-17.14,8-35.05,12.38-52.77,2.1-8.48,4.35-18.52.17-26.75-4-7.93-12.27-9.21-19.27-4.28-12.66,8.93-24,23.1-22.24,39.49.57,5.32,2.48,10.34,3.27,15.61a34.64,34.64,0,0,1-1.26,15.4c-2.92,9.36-8.72,17.59-5.56,27.77a6.17,6.17,0,0,0,5.78,4.41c15.09.51,19.3-21,23.45-31.67,2.83-7.32,5.87-14.38,5.56-22.38-.25-6.59-3.12-14.49.59-20.5l-11.18-3a149.68,149.68,0,0,1-13.15,51.22c-2,4.26-4.12,8.44-6.47,12.5-1.8,3.11-3.9,6.16-4.81,9.67-2.13,8.14,3.72,14.58,11.76,15,7.82.46,14.44-4,17.91-10.86,4.09-8,7.26-16.88,10.29-25.36,6.24-17.51,9.79-35.72,6.36-54.21-1.41-7.58-13-4.37-11.57,3.19,2.71,14.66-.22,29.38-4.83,43.35-2.27,6.9-5,13.66-7.75,20.36-1.22,2.91-2.31,6.88-4.43,9.32-.73.84-5.3,3.62-6.17,2.36-.66-.93,4-7.45,4.47-8.33,1.58-2.81,3.07-5.68,4.48-8.58a169.6,169.6,0,0,0,7.63-18.52,164.67,164.67,0,0,0,8.28-41.15c.48-6.21-8.24-7.78-11.18-3-6.88,11.13.22,23.31-3.33,35-2,6.74-5,13.29-7.55,19.85-1.25,3.21-3.69,13.92-8.36,13.76l5.79,4.4c-2-6.48,2.5-13.1,4.72-19a45.31,45.31,0,0,0,2.46-21.67c-.9-6.93-4.21-13.88-3.26-20.95.82-6.08,4.34-11.62,8.43-16a53.8,53.8,0,0,1,6.73-6.16c.5-.38,2.76-2.4,3.29-2.19,1,.41,1.26,3.56,1.36,4.39.86,7.79-2.61,15.73-4,23.27-2.7,14.18-4.26,28-9.42,41.59a133.1,133.1,0,0,1-24.83,40.83c-5.11,5.76,3.35,14.28,8.48,8.48Z"/><path class="cls-5" d="M1316.24,511.32c6.71-20,18.55-37,33.17-52,6.38-6.54,13.14-12.69,20-18.72,7.81-6.86,16.36-16.07,26.71-18.82s22,4.85,31.36,8.36a265.76,265.76,0,0,0,37.59,11c23.42,5,47.77,8.1,70.68-.63,10.06-3.84,19.63-8.9,30-12.05a122.54,122.54,0,0,1,18-3.94c6.35-.93,14.53-2.76,20.88-1.12,8.71,2.25,15.8,11.92,21.78,18.1a237.71,237.71,0,0,1,21.08,24.42A151.38,151.38,0,0,1,1674,524.46c5,23.78,5.41,48.49,5.59,72.71.41,56.91-3.81,113.84-6.82,170.64-.67,12.56,18.87,12.52,19.53,0,2.93-55.23,7-110.56,6.84-165.88-.11-50.56-3.1-101.27-33.4-143.81-12.15-17.05-27.21-35.51-44.29-47.84-10.5-7.58-22.06-7.21-34.35-5.75-13.49,1.6-26.3,4.41-38.87,9.64-12,5-23.67,11.09-36.77,12.26-13.27,1.18-26.81-1.12-39.76-3.82a265.71,265.71,0,0,1-37.62-10.8c-11.89-4.37-23.85-11.31-36.95-10-12.93,1.27-23.51,9.52-33.09,17.64-8.89,7.53-17.66,15.26-25.92,23.49C1320,461,1305.6,481.75,1297.4,506.13c-4,11.94,14.84,17.07,18.84,5.19Z"/><path class="cls-5" d="M1673.12,772.44c1.11,29.16,2.6,61.25-5,89.67-7.15,26.59-28.93,46.45-50.31,62.36-11.3,8.41-23.2,16-35.21,23.32-12.68,7.75-25.71,15.37-40.19,19.18-25.91,6.82-56.61,5.83-83,2.11-27.16-3.84-53.57-13.3-75.69-29.75-18.48-13.74-33.32-32.3-44.41-52.37a184.46,184.46,0,0,1-22.45-73.74c-1.22-15.06-.3-30.14-.11-45.22.19-15.65-1.12-31.18-2.48-46.76-3.17-36.34-.63-72,.82-108.36,1.44-35.84.34-71.71-.77-107.54-.38-12.54-19.92-12.6-19.53,0,1,34.25,2.11,68.54.94,102.8-1.18,34.66-4.51,69.07-1.78,103.74,1.31,16.64,3.21,33.23,3.3,49.94.08,16.23-1.22,32.47-.12,48.69a208.11,208.11,0,0,0,22.41,80.83c25.16,49.17,69.59,83.95,124,94.74a275.1,275.1,0,0,0,88.47,2.63c31.34-4.13,58.48-21.77,84.13-39.21,26.07-17.72,53.66-39.6,66.32-69.37,6.85-16.13,8.72-33.72,9.74-51.06,1.11-18.86,1.2-37.75.48-56.63-.48-12.53-20-12.59-19.53,0Z"/><path class="cls-5" d="M1303,578.59c11,13.75,12.11,34.19,13.78,51,1.24,12.39,20.79,12.52,19.54,0-2.28-22.79-4.7-46.31-19.51-64.78-7.86-9.81-21.6,4.09-13.81,13.81Z"/><path class="cls-5" d="M1670.81,631.45c-.39-10.47,5-20.58,7.7-30.57,3-11.23,7.73-20.19,14.31-29.73,7.16-10.38-9.77-20.15-16.86-9.86-7.53,10.9-12.87,21.56-16.28,34.4-3.17,11.9-8.87,23.19-8.41,35.76s20,12.59,19.54,0Z"/><path class="cls-5" d="M1386.51,382.19c-16.39,1.06-29.75,9.44-42,19.9a325,325,0,0,0-34.68,35.13c-22.3,26-39.58,56.16-46.88,89.86a178.49,178.49,0,0,0-3.11,53.33c.81,9.46,2,18.88,2.61,28.36.22,3.71-.75,9.17.33,12.63l-.1,3.17q7.68-4.86,3.19-4.57c-1.72-.75-5-.51-7-.68-16-1.45-24.27,10.74-26,25.14-1.93,15.61-.51,34.1,4.29,49.08,11,34.52,33.79,67.79,60.71,91.84,9.35,8.35,23.21-5.41,13.81-13.81-22-19.63-38.6-44.13-50.76-70.89-6.62-14.58-8.85-29.27-9.09-45.2-.06-3.46-.91-14,2.61-16.33,1.82-1.21,4.87-.24,6.84,0,3.57.4,7.3.7,10.82-.27,15-4.13,10.27-26.69,9.27-38-1.47-16.53-3.7-32.95-2.41-49.58,2.4-31.09,15.08-60.66,33.19-85.78,9.72-13.49,21.17-25.66,33-37.32,11.16-11,24.66-25.41,41.33-26.48,12.49-.81,12.58-20.35,0-19.54Z"/><path class="cls-5" d="M1304,685.63c-5.37-9.12-10.18-19.19-16.59-27.61-5.79-7.61-16.46-11.73-25.76-12.18-12.57-.6-12.54,18.93,0,19.54,7.26.34,10.6,4.82,13.93,10.47l11.55,19.64c6.37,10.83,23.26,1,16.87-9.86Z"/><path class="cls-5" d="M1267.54,631.64c6,13.28,17.47,21.16,30.49,26.71,4.85,2.07,10.47,1.45,13.36-3.5,2.4-4.11,1.38-11.28-3.5-13.36-10.3-4.39-18.74-9.18-23.49-19.7-2.17-4.81-9.15-6-13.36-3.51-4.94,2.89-5.68,8.54-3.5,13.36Z"/><path class="cls-5" d="M1394.34,397.11c11.59-9.69,30-8.32,44-11.32,17.95-3.83,35-7.35,53.52-7.05,17.82.29,35.46,2.94,52.93,6.3,16,3.07,32.19,6.11,47.75,11a112.68,112.68,0,0,1,41.63,23.5,189.12,189.12,0,0,0,17.18,13.91c7.41,5.12,14.26,9.64,19.76,17,20,26.64,34.21,61.1,40.46,93.69,3.39,17.72,3.93,36.43-.78,54-3.86,14.42-11,29.72-25.31,36.12-11.46,5.13-1.53,22,9.85,16.87,30.75-13.76,39.57-56.1,38.22-86.25-1.73-38.57-16.78-76.67-36.19-109.65a148.46,148.46,0,0,0-14.37-21c-6.53-7.7-14.86-12.6-23-18.4-14.93-10.68-26.73-23.71-43.77-31.47-16.24-7.4-33.52-11.34-50.91-15-20.19-4.21-40.54-8.05-61.13-9.54-22.81-1.64-44.42,1.23-66.62,6.22-19.93,4.47-40.65,3.57-57.1,17.32-9.65,8.07,4.23,21.82,13.81,13.81Z"/><path class="cls-5" d="M1718.44,638c6.81-3.05,10.51-3.61,12.32,4.44,1.67,7.44,1.62,15.37,1.27,22.94-.65,14-2.25,29.14-6.2,42.67-3.8,13-13.6,24.5-21.46,35.32-8.69,12-18,23.48-27.76,34.59-8.28,9.41,5.49,23.28,13.81,13.81a527.2,527.2,0,0,0,36-45.84c5.58-8,11.56-16,15.44-25s5.17-18.57,6.62-28.12c2.83-18.61,6-39.63.45-58.06-2.37-7.87-7.34-14.85-15.43-17.49-8.76-2.86-16.93.29-24.94,3.87-11.45,5.13-1.53,22,9.86,16.87Z"/><path class="cls-5" d="M1697,692.67c3.25-7.56,9.07-9.59,14.93-14.82,4.44-4,8.54-10.74,14.36-12.74,11.83-4,6.75-22.91-5.19-18.83-9.16,3.13-14.74,9.89-21.52,16.39-3.14,3-7,4.79-10.31,7.55a32.84,32.84,0,0,0-9.13,12.59c-2.1,4.88-1.41,10.41,3.5,13.36,4.1,2.45,11.29,1.33,13.36-3.5Z"/><path class="cls-5" d="M1349.46,666.3c19.36-9.87,40.45-16.55,62.18-18.31,14.83-1.2,37.83-3.27,48.9,9.24,12,13.58,9.43,36.85,8.63,53.52q-.78,16.41-1.64,32.81a103.28,103.28,0,0,1-1.21,13.72,32.29,32.29,0,0,1-2.13,7.6c-.38.8-3.26,4.36-2.19,4.5-5.27-.72-10.42,1.28-12,6.83-1.31,4.54,1.6,11.29,6.82,12,30.17,4.14,29.85-36.69,30.85-56.59,1.27-25.36,5.79-54.84-6.35-78.37-11.56-22.4-36.92-25.72-59.65-25.29-28.76.54-56.53,8.44-82.06,21.47-11.2,5.71-1.32,22.57,9.86,16.86Z"/><path class="cls-5" d="M1648.22,653.63c-7.52-8.77-17.62-12.58-28.58-15.15a338,338,0,0,0-40.05-7.31,129.09,129.09,0,0,0-39.91,1.35c-10.75,2.17-25.73,5.94-31.86,16s-6.18,25.64-6.59,37.2a292.26,292.26,0,0,0,2.08,42.44c1.9,17.24,1.29,60.33,27.57,59.37,12.53-.45,12.59-20,0-19.53-6,.22-8.89-47.69-9.34-53.5a248.82,248.82,0,0,1-.71-30.28c.32-7.16-.53-21.45,5.09-26.55,2.94-2.67,9.51-3.95,13.32-5a81.22,81.22,0,0,1,14.41-2.57,132.06,132.06,0,0,1,29.13,1c10.18,1.37,20.25,3.6,30.25,5.9,8.34,1.91,15.62,3.74,21.38,10.45,8.2,9.56,22-4.31,13.81-13.81Z"/><path class="cls-5" d="M1586.59,706.93c-7.52-1.56-14.83-3.76-21.27-8.08-5.41-3.63-14.63-12.35-13.76-19.69,1.16-9.82,19.62-10.24,26-9,10.86,2.12,22,9.63,32.1,14l-2-15.34c-15.12,14.25-34.88,13.23-53,5.47-11.43-4.88-21.4,11.94-9.86,16.86,26.58,11.36,54.56,12.35,76.71-8.51,4.18-3.93,3.79-12.83-2-15.34-15.54-6.78-31.35-13.67-48.5-14.63-14.69-.81-32.5,3.17-37.66,18.84-4.45,13.49,3.76,27.82,13.2,37.08s22,14.48,34.85,17.15c12.27,2.55,17.51-16.28,5.19-18.84Z"/><path class="cls-5" d="M1405,723.37c7.94,1.52,13.6-1.18,19.68-6.17,6.55-5.37,14.6-7,21.29-12,11.48-8.6,21.48-30.14,6.42-40-14.09-9.27-32.88-12-49.4-10.86-15,1-33.77,3.09-41,18.32-2.26,4.79-1.37,10.49,3.5,13.36,24,14.18,51.58,18.68,78.58,11.26,12.11-3.33,7-22.18-5.19-18.84-22.06,6.07-44,2.29-63.53-9.28l3.5,13.36c3.64-7.7,16.95-10.11,24.49-10.75,10-.85,18.27,2,27.86,5.11a53.12,53.12,0,0,1,6.7,2.67c1.29.61,2.56,1.27,3.79,2l-1.14-2.41c-1.69,5.18-3.83,9.3-8.75,12-4.08,2.23-8.76,3-12.73,5.62-1.33.86-8.53,7.85-8.93,7.77-12.28-2.36-17.54,16.46-5.19,18.84Z"/><path class="cls-5" d="M1316.87,772.94c-4,1.79.3,2.85,2.75,4.29a48.84,48.84,0,0,0,7,3.23c.74.29,8.5,3,8.46,3.12l-1.61-2.89A24.44,24.44,0,0,1,1333,785a120.71,120.71,0,0,0,1.2,37.12c2.33,12.34,21.15,7.11,18.84-5.19a93.77,93.77,0,0,1-1-28c.81-7.09,2.11-14.52-3.82-20-5.44-5-13.73-5.5-19.89-9.3-7.43-4.6-12.72-7.46-21.33-3.62-11.46,5.12-1.53,21.95,9.86,16.87Z"/><path class="cls-5" d="M1671.27,750.68c-8.31,8.57-17.69,14.93-29.31,18a9.9,9.9,0,0,0-7.17,9.41l1.31,44.2c.37,12.54,19.9,12.59,19.53,0l-1.3-44.2-7.17,9.42c14.73-3.89,27.38-12.14,37.92-23,8.75-9-5-22.86-13.81-13.81Z"/><path class="cls-5" d="M1531.55,804.5c-6.93,12.71-21.84,16.61-35.52,16.3-15.37-.33-29.62-7.23-41.06-17.2-9.44-8.23-23.31,5.53-13.81,13.81,16,13.91,35.76,23.29,57.29,22.94,19.78-.33,40.1-7.9,50-26,6-11-10.84-20.91-16.86-9.86Z"/><path class="cls-5" d="M1485.42,838.42a82.34,82.34,0,0,0,.08,20.75c.69,5.23,4,9.77,9.77,9.77,4.75,0,10.46-4.5,9.77-9.77a81.88,81.88,0,0,1-.09-20.75c.64-5.24-5-9.77-9.77-9.77-5.81,0-9.12,4.51-9.76,9.77Z"/><path class="cls-5" d="M1386.68,939.33c-3.06-19.67-6.91-39.4-7.71-59.33-.51-12.52-20-12.59-19.54,0,.88,21.66,5.09,43.14,8.42,64.52,1.92,12.39,20.75,7.13,18.83-5.19Z"/><path class="cls-5" d="M1625.26,928.36a111.55,111.55,0,0,1,6.17-49.6c4.35-11.81-14.52-16.91-18.83-5.19a125.11,125.11,0,0,0-6.88,54.79c1.16,12.41,20.7,12.53,19.54,0Z"/><path class="cls-5" d="M1473.31,930c6.62-2.51,12.55-5.68,19.8-5.44,6.81.23,13.45,2.48,19.91,4.45,12,3.67,17.2-15.17,5.19-18.83-8.15-2.49-16.52-4.91-25.1-5.15-9.09-.26-16.68,3-25,6.14-11.64,4.42-6.59,23.31,5.19,18.83Z"/><path class="cls-5" d="M1594.79,877.43c-4.88-5.46-11-9.49-18.36-10.58-8.54-1.28-15.93,2.3-23.75,5.18a267.07,267.07,0,0,1-26.57,8c-9.56,2.44-19.58,5.72-29.46,6.25-9.45.5-17.63-3.66-26.27-6.84a179.2,179.2,0,0,0-26.78-7.6c-8.58-1.72-19-4.32-27.72-2.77-8.18,1.45-11.2,8.1-18,11.29-11.39,5.29-1.48,22.14,9.86,16.86,6-2.77,8.42-8.69,15.18-8.83,8-.16,16.84,2.37,24.52,4.33,15.33,3.92,30.09,12.83,46.13,13.16s33-5.46,48.16-9.79c7.81-2.23,15.33-5,22.92-7.84,7.15-2.67,11-3,16.37,3,8.39,9.39,22.17-4.46,13.81-13.82Z"/><path class="cls-5" d="M1412.14,502.42c5,7.85,13.65,11,22.66,9.44,5.48-1,10.57-3.53,15.63-5.71a48.43,48.43,0,0,1,16.65-4.3c11.34-.63,22.49,2.32,33.69,3.63a70.7,70.7,0,0,0,16.89.17,123.47,123.47,0,0,0,15.92-3.27c11.89-3.1,24.29-7,36.59-3.91,3,.77,4.35-3.94,1.3-4.71-21.63-5.45-41.9,8.18-63.43,7.42-11.12-.39-22-3.36-33-4.12a55.34,55.34,0,0,0-16.44,1.1c-5.37,1.25-10.33,3.72-15.39,5.86-4.81,2-10,3.91-15.29,3.3a15.67,15.67,0,0,1-11.52-7.36c-1.68-2.64-5.91-.2-4.22,2.46Z"/><path class="cls-5" d="M1417.1,541c7.61,5.5,16.69,4.62,25.31,2.4,4.34-1.12,8.62-2.49,13-3.38a36.88,36.88,0,0,1,15,.16c5.47,1.13,10.83,2.74,16.35,3.67a116.64,116.64,0,0,0,16.15,1.56,165.6,165.6,0,0,0,33.33-2.91c12.53-2.23,24.86-5.43,37.16-8.65,3-.8,1.75-5.51-1.3-4.71-21.11,5.52-42.56,11.18-64.52,11.42a113.83,113.83,0,0,1-16.3-.93,159.17,159.17,0,0,1-16.18-3.39c-4.82-1.16-9.79-2.13-14.77-1.8a66.62,66.62,0,0,0-13,2.56c-9.19,2.53-19.22,5.94-27.73-.21-2.55-1.85-5,2.39-2.47,4.21Z"/><path class="cls-5" d="M1507.44,398.09a640.29,640.29,0,0,1-80-5.69c-7.44-1-10.93,10.13-3.19,11.57a713.4,713.4,0,0,0,84.06,10.53c7.71.5,7.68-11.5,0-12a686.87,686.87,0,0,1-80.87-10.1L1424.29,404a664.64,664.64,0,0,0,83.15,6.12c7.73.07,7.73-11.93,0-12Z"/><path class="cls-5" d="M1655.83,442.38c11.16,12.05,22.76,24.89,28.44,40.59,3,8.32,4.09,17.16,6.37,25.68,1.07,4,2.48,8.05,2.39,12.24-.1,5.07-2.25,9.88-4.27,14.43l11.18,3-1.6-21.89h-12c.91,9.44-.25,18.94.83,28.37a66.39,66.39,0,0,0,8.3,25.31c3.26,5.77,13.35,1.9,11-4.62l-3-8.1a6,6,0,0,0-11.58,3.19c1.18,6,2.38,12,2.09,18.14-.25,5.31-2.87,10.65-.73,15.84,4,9.68,16.64,7.87,21.69.21,2.54-3.85,3.08-8.39,3.6-12.86a129.26,129.26,0,0,0,1.21-18.54c-.32-11.9-2.6-23.92-4.08-35.73-.78-6.21-10-8.73-11.78-1.6-2.5,10-1.65,19.93-.38,30,1,7.56,13,7.65,12,0-1.12-8.92-2.27-18,0-26.81l-11.79-1.59c2.16,17.2,5.06,34,3.2,51.35a38.87,38.87,0,0,1-2.18,9.53,4,4,0,0,1-1.06.87c.82,1.08,1.13.75.94-1,.72-1.5.77-3.67,1-5.28,1.19-8.64-.43-17.27-2.09-25.74l-11.58,3.19,3,8.1,11-4.63a53,53,0,0,1-7-22.86c-.51-8.26.29-16.52-.51-24.76-.73-7.58-12.56-7.77-12,0l1.6,21.89c.39,5.29,8.54,9,11.18,3,4.42-10,7.2-19,4.68-29.92-2.3-9.95-4.19-20.43-7.42-30.12-6.16-18.46-19.06-33.4-32.07-47.45-5.26-5.67-13.73,2.83-8.48,8.49Z"/><path class="cls-5" d="M1412.63,396.05c7-.45,14.15.55,21.12,1,6.72.46,8.19-10.35,1.59-11.79a135.19,135.19,0,0,0-32.71-3.1c-7.71.22-7.74,12.22,0,12a121,121,0,0,1,29.52,2.68l1.6-11.79c-7-.48-14.14-1.48-21.12-1-7.67.5-7.72,12.51,0,12Z"/><path class="cls-5" d="M1292.81,627.43a44.89,44.89,0,0,1-5.69-14.28,20.4,20.4,0,0,0-.55-3.44l-.13-1.7-3.8,1.31c-.09.18,1.75,3,1.9,3.45a13,13,0,0,1,.69,4.24c.16,5.68,8.31,8.51,11.18,3a30.4,30.4,0,0,0,1.09-26.48c-4.07-9.92-7.53-19.7-8.81-30.41-.91-7.58-12.92-7.67-12,0a109.09,109.09,0,0,0,6.62,27.41c3.15,8,7.12,15.05,2.74,23.43l11.18,3c-.17-5.83-1.93-11.89-6.1-16.18-3.65-3.74-9.91-4.9-14-1-4.27,4.11-2.68,11.44-1.63,16.52a55.21,55.21,0,0,0,6.9,17.15c4,6.61,14.35.58,10.36-6.06Z"/><path class="cls-7" d="M1726.28,642.93a10.75,10.75,0,0,0-4.07-.21,35,35,0,0,0-3.77,1c-2.28.67-4.66,1.28-6.41,3-1.39,1.35.73,3.47,2.12,2.12s3.34-1.7,5.09-2.22c1.06-.31,2.13-.66,3.21-.92a6.61,6.61,0,0,1,3,.1,1.5,1.5,0,0,0,.8-2.9Z"/><path class="cls-7" d="M1709.89,689.33a5.44,5.44,0,0,0-.08-2.44,6.07,6.07,0,0,0-.94-1.8c0-.05-.07-.11-.11-.17s0-.07,0,.07a.91.91,0,0,1-.09.58c-.36.31-.45.4-.28.3s.06,0-.11,0l.22-.07.32-.08a5.37,5.37,0,0,0,2.14-1.18l-2.35-1.81c-.24.33.19-.18-.1.11l-.23.24-.26.22c.24-.19-.11.07-.13.08a8.89,8.89,0,0,1-1.27.73l.76-.2h-.11l.76.2-.07,0,.69.9c-.06.51-.06.65,0,.43s0-.09,0,0a1.82,1.82,0,0,1,.16-.31s.21-.29,0-.1a2.13,2.13,0,0,1,.3-.3l-2.51-1.46a.82.82,0,0,1,.31-.42l.76-.2.23,0,.66.38-.06-.06.38.66c.22.55-.08.44-.12.77-.07.1,0,.09,0,0l.1-.09c-.25.21.07,0,.11-.06l.23-.13a11.7,11.7,0,0,0,1.18-.69,5.84,5.84,0,0,0,1.26-1.27c.07-.09.13-.18.2-.26s-.08.06,0-.06l.21-.24c.06,0,.35-.27.09-.09l-1.81-2.35-.11.08-.31.23-.64.46c-.52.37-1,.74-1.52,1.13a7.71,7.71,0,0,0-2.17,2.55,1.53,1.53,0,0,0,.54,2,1.52,1.52,0,0,0,2-.53,5.51,5.51,0,0,1,.38-.67c.22-.33-.19.21.07-.09l.25-.29c.16-.17.33-.33.51-.49l.29-.25.2-.16.16-.12.32-.23.64-.46c.5-.35,1-.71,1.46-1.09a1.5,1.5,0,0,0-1.82-2.36,4.25,4.25,0,0,0-1,.9c-.18.22-.34.44-.51.67s-.1.11,0,0c-.07.08-.13.17-.21.25s-.13.11-.19.18.26-.16,0,0q-.22.15-.45.27c-.34.19-.7.36-1,.58-.95.67-1.85,1.81-1.15,3a1.75,1.75,0,0,0,2.29.63,2.32,2.32,0,0,0,1.06-1.37,1.51,1.51,0,0,0-.69-1.7,1.54,1.54,0,0,0-1.82.24,4.59,4.59,0,0,0-1.27,2.07,1.72,1.72,0,0,0,2,2.19,6.28,6.28,0,0,0,1.74-.95,6.63,6.63,0,0,0,1.68-1.66,1.49,1.49,0,0,0-.39-1.93,1.52,1.52,0,0,0-2,.11l0,0-.23.15-.25.13h0c-.29.09-.59.15-.88.25a2.29,2.29,0,0,0-1.7,2.14c0,.88.56,1.42,1,2.13l.12.25c-.06-.15-.06-.14,0,0s.08.27.11.4,0,.18,0,0a2.72,2.72,0,0,1,0,.28c0,.07,0,.62,0,.29a1.53,1.53,0,0,0,1,1.84,1.51,1.51,0,0,0,1.84-1Z"/><path class="cls-7" d="M1700.37,653.38a1.82,1.82,0,0,0,.91-1.58,2.22,2.22,0,0,0-.08-.63,3.11,3.11,0,0,1-.11-.41l.05.4a.76.76,0,0,1,0-.15l-.05.4,0-.07-.15.36a1.78,1.78,0,0,0,.13-1.82,1.63,1.63,0,0,0-1.85-.78l1.85,1v.71l-.39.66,0,0-.3.24a.21.21,0,0,1,.1-.06l-.36.15a8,8,0,0,0,1.19-.42,5.45,5.45,0,0,0,1.06-.71,1.52,1.52,0,0,0,.44-1.06,1.64,1.64,0,0,0-.32-.91,1.5,1.5,0,0,0-1.94-.39l-1.16.62a1.5,1.5,0,0,0-.54,2.05,1.52,1.52,0,0,0,.9.69l.4.05a1.5,1.5,0,0,0,.75-.2l.42-.18-.36.15c1.19-.5,2.39-1,3.61-1.4a1.63,1.63,0,0,0,.9-.69,1.5,1.5,0,0,0-1.7-2.2c-1.48.52-2.94,1.11-4.38,1.73l1.51,2.59,1.17-.62-1.82-2.36-.12.1.3-.23a3.62,3.62,0,0,1-.74.42l.36-.15c-.3.13-.61.18-.9.3a1.66,1.66,0,0,0-1,2,1.53,1.53,0,0,0,1.85,1h-.71l-.66-.38,0,0-.24-.31,0,.06-.21-.76v.05l.06-.39,0,.06.15-.36a2.25,2.25,0,0,0-.35,1.16,4.4,4.4,0,0,0,.19.89l-.06-.4a1.09,1.09,0,0,1,0,.18l0-.4a.43.43,0,0,1,0,.11l.15-.36a.41.41,0,0,1,0,.09l.23-.31,0,0,.31-.24-.05,0a1.5,1.5,0,1,0,1.51,2.59Z"/><path class="cls-7" d="M1724.92,642.74a14.08,14.08,0,0,0-6.09,1.27c-1.76.73-3.55,1.72-5.49,1.77s-1.93,3,0,3c4.1-.09,7.43-3.27,11.58-3a1.5,1.5,0,0,0,0-3Z"/><path class="cls-5" d="M1577.43,392.32a51.57,51.57,0,0,1-13.74,1.08l.4,3c7.64-1.84,15.44,1,23.1,1.37,1.93.1,1.92-2.9,0-3-8-.41-15.9-3.19-23.9-1.26-1.7.41-1.24,2.86.4,2.94a54.55,54.55,0,0,0,14.53-1.19c1.89-.4,1.09-3.3-.79-2.89Z"/><polygon class="cls-5" points="1650.42 470.31 1667.22 501.45 1667.22 501.45 1662.01 487 1662.01 487 1650.01 469 1650.42 470.31"/></g><path class="cls-8" d="M88.7,763.54,599.4,442.32l39-11.72,42.44-1.13,51.08,12.62,31.71,7.22,30.82-1.81,28.08-11.26,131.68-82.83,3.4-14.92,40.07-25.21,1.45,2.29,8.73-3.89s10.49,2.65,13.78,4.11a69,69,0,0,1,10.34,6.28c2.21,1.7,6.09,5.75,8,7.72,2.43,2.45,7.25,7.4,9.49,10s6.4,7.95,8.35,10.73c2.33,3.33,6.48,10.31,8.64,13.75s6.74,10.16,8.65,13.74a177,177,0,0,1,7.79,17.47c1.19,3.32,3,10.17,3.77,13.61s2.44,10.69,2.62,14.33c.17,3.38-1.11,13.48-1.11,13.48l-7.29,6.19-40.08,25.21-11.62-.69-135.12,85-20.44,20.85L859.09,598.6,852,625.43l-4.51,28.4-7.94,30.57-6.83,17.08L823.3,717l-17.44,20.56-24.17,20-499.25,314s-11.9,1-15.78.33c-6-1.11-17-6.92-22.25-10-4.73-2.74-13.43-9.42-17.67-12.86-3.83-3.1-11-9.83-14.67-13.15-3.87-3.54-11.65-10.6-15.38-14.29-2.45-2.43-7.12-7.51-9.49-10s-7.26-7.39-9.5-10c-2.42-2.85-6.8-8.91-9.06-11.88s-6.94-8.81-9.07-11.88c-3.09-4.44-8.64-13.74-11.52-18.32l-11.53-18.32c-4.14-6.58-12.81-19.52-16.56-26.33-2.79-5.08-7.59-15.63-10-20.91-1.68-3.76-4.74-11.39-6.35-15.18-2.54-6-8-17.81-10.25-23.92-2.64-7.24-7.4-22-9-29.51-1.76-8.44-4.15-25.64-4-34.26a66.1,66.1,0,0,1,2.25-14.2C83.83,773.41,88.7,763.54,88.7,763.54Z"/><path class="cls-9" d="M532.91,484.14c-5.69,3.58-3,20-3.08,26.71-.15,8.77,1.13,26.37,2.83,35,2.09,10.62,9.09,31.22,13.16,41.26,5.11,12.59,17.74,36.73,24.23,48.68,5.82,10.7,18,31.82,24.79,41.94s21.47,29.73,29.36,39.06c8.9,10.54,27.6,31,38,40.05,8.21,7.2,25.62,20.72,35.35,25.71,6.82,3.5,22.64,13.72,29.13,9.64"/><path class="cls-9" d="M696.21,811.31c-4.13,2.6-14.65-1.49-19.27-3.06-5.88-2-16.59-8.5-21.83-11.84-5.51-3.51-15.94-11.41-21-15.57-5.94-4.91-17.36-15.32-22.71-20.87-6.42-6.64-18.29-20.8-24-28-5.9-7.44-17.12-22.78-22.46-30.63-5.51-8.11-16-24.71-20.88-33.2-4.59-7.93-13.29-24.06-17.16-32.36-5.65-12.15-15.9-37-20.07-49.7-3.43-10.47-10.13-31.71-10.88-42.7-.66-9.73-3.81-33.56,4.44-38.75"/><path class="cls-9" d="M482.3,516c-5.44,3.41-3.44,19-3.57,25.41-.19,9.08,1.72,27.24,3.54,36.13,1.62,7.87,7,23.1,9.7,30.66,3.4,9.35,10.93,27.8,15.16,36.8,3.89,8.29,12.57,24.44,17.16,32.36,6.94,12,21.49,35.65,29.53,46.95,8.67,12.2,27,36,37.41,46.78,8.83,9.17,28.15,25.92,38.52,33.3,5.92,4.21,18.4,11.86,25.14,14.55,5.05,2,16.54,8,21.15,5.08"/><path class="cls-9" d="M271.83,648.35s-5.37,16.43-5.95,22.13c-.79,7.68.51,23.21,1.81,30.82,1.41,8.34,6.6,24.5,9.26,32.53,3.27,9.81,10.4,29.28,14.74,38.67,4.69,10.15,15.81,29.59,21.48,39.23,6,10.2,18.48,30.33,25.21,40.07s20.88,28.93,28.64,37.92c7.24,8.39,22.67,24.37,31.06,31.6s25.79,20.42,35.35,25.71c6.76,3.74,22.13,15.65,28.67,11.54"/><path class="cls-9" d="M446.09,968.63c-3.83,2.41-13.38-2.55-17.63-4.09-5.56-2-16-7.69-21.11-10.69a227.52,227.52,0,0,1-19.54-13.28c-5.19-4.15-14.8-13.37-19.41-18.16-6.17-6.41-17.51-20.14-23.3-26.89-4.67-5.45-14.32-16.1-18.56-21.89-4.8-6.54-13-20.61-17.29-27.48S296.08,825.67,292,818.67c-2.93-5-8.55-15-11.1-20.19-4.09-8.27-11.53-25.19-14.87-33.79-3.14-8.11-8.81-24.57-11.13-33-2.41-8.66-7-26.15-7.7-35.11-.46-5.8.35-17.5,1.36-23.23.58-3.29,1-11,3.82-12.79"/><path class="cls-9" d="M221.39,680.08c-5.9,3.71-2.28,20.84-2.3,27.81a253.21,253.21,0,0,0,2.53,32,188.75,188.75,0,0,0,5.8,21.93c2.12,6.15,7.64,18,10.25,23.91,2.87,6.58,8.63,19.72,11.69,26.21,2.9,6.15,8.79,18.41,12.11,24.34,3.48,6.19,11.35,18,15.13,24,3.24,5.15,9.63,15.52,13,20.61,5,7.64,14.78,23.14,20.59,30.2s19.73,20,26.32,26.59c5.38,5.41,15.7,16.72,21.57,21.59,6.53,5.42,20.42,15.37,28,19.14,6.86,3.4,22.59,13.75,29.07,9.67"/><path d="M414.06,663q-2.91,2.67-6.8,5.63L399.4,662l-7.75-6.68q3.84-3.52,1.76-6.93-2.55-4.15-8.6-5.42-4.53-.45-6.6,2.14-1.24,1.78,1.43,6.15a40,40,0,0,0,3.86,5.11A65.57,65.57,0,0,1,390,665q6,9.79,2.16,16a19.17,19.17,0,0,1-2.71,3.71q-5.18,4.94-14.88,4.88-12.45.45-25.94-7.68A31.26,31.26,0,0,1,337.4,671a39.11,39.11,0,0,1-5.1-14.3q6.72-1.94,20.52-4.52a20.24,20.24,0,0,0,2.81,9.85,13.08,13.08,0,0,0,3.09,3.37,28.32,28.32,0,0,0,6.11,5.19q4.4,2.86,6.27,1.14,2.29-2-.71-6.89a68.48,68.48,0,0,0-6.74-8.61,53.64,53.64,0,0,1-7.13-8.52q-2.67-4.37-2.58-7.79-.92-6.76,4.27-10.24,9.81-7.17,31.09-3.52,21.79,3.78,29.35,14.67Q426,651.58,414.06,663Z"/><path d="M443.31,721.94q-8.21-12-12-17.13-12.12,6.27-48.4,33.33L366,720l52.53-32.35q-1.08-1.53-5.29-6.72-3.76-4.71-6.11-7.82l19-9.88,33.44,44.53Z"/><path d="M391.76,750.61a556.68,556.68,0,0,0,74.31-24.75l19.11,23.29q-26.28,22.11-57,57.23l-16.35-16.64,10.36-9.86L413,768.06l-13.4,5.13ZM433,769.41l22.66-19.9-28.05,11.34Z"/><path d="M513.3,794.3q9.91,16.19-1,26.27-14.19,10.3-33,1.17-2.18,4.56-11,30.77-9.33-2.78-23.39-7.34l15.53-34.86q-12.94,7.79-23,15.1l-15.24-14.82q52.13-29.91,68.51-42.58Q506.18,782.7,513.3,794.3Zm-30.75,2.89-7,3.85a45.64,45.64,0,0,0,8.63,4.53q7.83,3,10.63.37,2-2,.2-5.4a37.44,37.44,0,0,0-5.65-7.08C486.87,794.68,484.61,795.93,482.55,797.19Z"/><path d="M538.52,877.27q-8.21-12-12-17.13-12.13,6.25-48.41,33.33l-17-18.15L513.69,843q-1.08-1.53-5.28-6.72-3.78-4.71-6.12-7.82l19-9.88,33.44,44.52Z"/><path class="cls-9" d="M954.79,350.71s-.3,11.81.36,15.68c.94,5.49,4.73,16.08,6.94,21.2s7.64,14.36,10.38,19S981.11,420.37,984,425c2,3.15,5.54,9.74,7.93,12.6,4.05,4.84,13.68,13.14,18.68,17,3.84,3,12.19,7.91,16.24,10.56,1.57,1,5.4,3.78,7,2.78"/><path class="cls-9" d="M1001,314.73s-2.91,8.39-3.3,11.31a73.06,73.06,0,0,0,.33,15.78c.61,3.8,3.27,11.1,4.49,14.75,1.54,4.59,6.65,18.19,6.65,18.19l11.52,18.32,10.08,16s11,12.33,15,16.16c3.31,3.19,10.06,9.53,14,12,3.08,2,13.35,6,13.35,6s3.63,2.51,4.7,1.84"/><path d="M742.76,481.17c7.54,8.15,5.78,19.28,4.68,29.35-.39,3.6-.69,7.32.75,10.73s4.7,5.83,7,8.76c5.22,6.49,3.89,15.39,7.44,22.64,3.1,6.33,8.83,10.74,13.7,15.63a34.6,34.6,0,0,1,6.47,8.33c1.76,3.43,2.3,7.47,4.64,10.61,4.31,5.8,13.3,6.47,19.08,10.42,3.75,2.56,7.51,6,9.71,10,3.61,6.58.25,12.4-4.5,17.18-7.77,7.83-17.95,7.16-28.22,8-3.84.33-7.15.78-10.41,3A75.42,75.42,0,0,0,762.53,645c-6.1,6-10.72,13.3-11,22.08l2.13-.88c-4-4.26-10.17-2.69-11.8,2.88a1.25,1.25,0,0,0,2.41.66q3.19-6.19,7.62-1.78a1.27,1.27,0,0,0,2.14-.88c.39-11,8.23-18.83,16.12-25.57,4.62-3.94,8.21-5.71,14.33-6.22,4.88-.42,9.8-.66,14.65-1.3,13.17-1.75,27.25-16.51,18.14-29.51a38.74,38.74,0,0,0-17.34-13.15c-5.27-2.08-9.83-3.19-12.17-9-1.4-3.44-2.34-6.78-4.49-9.87-4.15-6-10.24-10.17-14.86-15.72-6-7.23-4.88-15.88-8.5-24-1.64-3.68-4.44-5.94-7-8.92-4.71-5.48-3-12-2.31-18.57,1-9.24.58-18.69-6-25.84-1.09-1.19-2.86.59-1.77,1.77Z"/><path d="M742.71,668.64a75.41,75.41,0,0,1-35,25.54c-1.5.53-.9,2.86.66,2.41a3.68,3.68,0,0,0,2.77-4.26c-.32-3.1-3.14-4.28-5.92-4.37-6.29-.22-11.64.42-17.84-1.63-6.4-2.12-12.28-5.52-18.08-8.89l-1,2.28a8.2,8.2,0,0,0,5.58-.62,1.25,1.25,0,0,0,.58-1.41A11.33,11.33,0,0,0,669,670c-4.52-2.86-9.21-4.18-13.25-7.92-2.49-2.3-4.94-4.92-8.15-6.23-4.92-2-13.4,2-16.63-3.17l-.75,1.83a4.26,4.26,0,0,0,3.24-5.57c-1.24-3.87-5.77-3.93-9.1-3.88-12.11.18-10.66-11.08-6.58-19,1.08-2.11,3.54-6.29.9-8.36-1-.77-1.69-.51-2.74-.27s-2.17,1.69-3.23,1.75c-1.18,1-1.42.36-.69-1.95l.64-1.11c2.33-5,5.1-8.62,5.6-14.44s-1.79-10.67-2.88-16.3c-1-5,2.67-11.07-.64-15.54a1.31,1.31,0,0,0-1.41-.57,7.58,7.58,0,0,0-6.24,6l2.46.33c.86-6.47,1.71-13,2.59-19.42.56-4.11,1.17-7.1,3.49-10.57a29,29,0,0,0,3.51-5.76c.9-2.37,2.24-6.86.09-8.84s-4.83-.15-6.47,1.67l1.77,1.77A46.81,46.81,0,0,1,634.35,520c7.25-2.83,14.38-3,21.91-4.3,1.85-.32,3.28-.73,4.28-2.4,1.36-2.28-.53-4.53,4.84-3.47,1.35.26,2.87,1.67,4.3,2.1,6.35,1.94,13.12-.81,18.91-3.25,1.48-.63.21-2.78-1.26-2.16-4.46,1.88-9.47,4-14.42,3.49-3.64-.34-6.11-3.32-9.55-3.7a3.79,3.79,0,0,0-4.21,2.54c-1.19,2.71-.58,4.11-4.33,4.46-1.77.17-3.53.22-5.3.43-14.13,1.67-27.79,7.63-36.8,18.94-1,1.23.67,3,1.77,1.77q1.23-2.33,3.19.52a11,11,0,0,1-1,4,20,20,0,0,1-2.74,4.68,18.41,18.41,0,0,0-3.8,8.55c-1.31,7.73-2.09,15.59-3.13,23.36-.19,1.41,2.13,1.68,2.46.33,1.28-5.25,3.72-3.71,4-.91.15,1.27-.5,2.68-.7,3.93a17.77,17.77,0,0,0-.19,5.4c.78,5.66,3.54,10.68,3.14,16.55-.42,6.08-3.37,9.88-5.95,15-1.17,2.35-1.56,4.57.37,6.54a1.27,1.27,0,0,0,1.52.19c.69-.41,2.18-1.74,3-1.8,4-.27,1.64,2.44.9,3.9s-1.6,3.18-2.23,4.85c-1.34,3.53-2,7.28-.75,10.93a10.33,10.33,0,0,0,5,6.19,10,10,0,0,0,3.45.89,39.82,39.82,0,0,0,4.09-.11,7.3,7.3,0,0,1,2,.06q3.28-.26,2.4,4.52a1.27,1.27,0,0,0-.75,1.84,8.09,8.09,0,0,0,6.52,3.89c2.34.24,4.64-.41,7-.39a12.63,12.63,0,0,1,8.57,3.52c2.79,2.38,5.21,5.16,8.4,7,2.07,1.22,4.34,2,6.47,3.06,1.9,1,9.84,7.49,3.33,6.23a1.26,1.26,0,0,0-1,2.29c6,3.48,12.07,6.95,18.68,9.14a40.9,40.9,0,0,0,8.81,1.93,32.36,32.36,0,0,0,5.21.1q1.17-.06,2.31-.21c2.29-.57,3.84.63,4.66,3.62l.66,2.41a78.28,78.28,0,0,0,36.47-26.69c1-1.28-1.2-2.53-2.16-1.26Z"/><path d="M689.57,508.68c4.38-1.3,8.56-2.77,11.87-6.07,3.82-3.81,6.4-8.81,9.81-13,3.89-4.75,8.32-9.33,14.09-11.7,7.12-2.92,15.54-1.51,19,5.91.69,1.46,2.85.19,2.16-1.26-5-10.63-18.21-10.29-26.88-4.47-5,3.35-9,8.05-12.58,12.81-2.18,2.88-4,6.08-6.39,8.8-3.23,3.69-7.19,5.18-11.78,6.54a1.25,1.25,0,0,0,.66,2.41Z"/><path d="M747.74,517.29a15.21,15.21,0,0,1-7.56-8c-1.62-3.95-.79-7.12-.39-11.13a15.78,15.78,0,0,0-4.77-13,1.26,1.26,0,0,0-2,1.51c1,1.56,3,3.68,1.35,5.34-.35,1.33-.89,1.42-1.6.29a11.27,11.27,0,0,1-2.48-2.63,1.25,1.25,0,0,0-2.16,1.26c1.16,1.25,1,2.35-.52,3.33q-.67,2.61-2.58,1.29c-.44,0-2.45-.6-3-.58-2.28.08-4.1,1.43-5.91,2.66-2.41,1.65-4.79,3.76-7.39,5.11-3.31,1.72-6.79.48-10.27,1.27-1.57.35-.91,2.77.66,2.41,4.22-.95,7.6.52,11.43-1.9,2.1-1.32,4.09-2.84,6.14-4.25,3.17-2.18,5.76-2.49,9.61-1.73,1.8.35,4.91.34,6-1.51s-1.23-5.58-2.06-7.36l-2.16,1.26c1.63,2.13,5.06,6.65,8.16,4.49,3.33-2.32.37-7.63-1.11-10l-2,1.52c3.89,3.93,4.38,8.08,3.66,13.26a19.8,19.8,0,0,0,.05,7.36,17.92,17.92,0,0,0,9.52,11.92c1.43.73,2.7-1.43,1.26-2.16Z"/><path d="M713.41,504.16c7.15-1.88,19.54.09,23.45,7.2.78,1.41,2.94.15,2.16-1.26-4.56-8.28-17.88-10.55-26.27-8.35a1.25,1.25,0,0,0,.66,2.41Z"/><path d="M734.9,502.75a148.11,148.11,0,0,1-16.82-5.08l-.34,2.45c2.52,0,5,.1,7.55.35,2.21.22,4.58,1,6.79,1a3.51,3.51,0,0,0,2.41-.58,6.89,6.89,0,0,0,.9-2.64l-1.41-.57c.39.59-.68,3.7-.85,4.37l2.28-.3-.28-.5A1.25,1.25,0,0,0,733,502.5l.28.5a1.27,1.27,0,0,0,2.29-.3c.48-1.91,1.8-4.46.6-6.29a1.28,1.28,0,0,0-1.41-.58c-1,.28-.94.39-1.53,1.06s-.22,1-.85,1.55c-.88.74-1.82.23-3,.05a78,78,0,0,0-11.63-.87,1.26,1.26,0,0,0-.33,2.46,149.35,149.35,0,0,0,16.82,5.08c1.57.37,2.23-2,.67-2.41Z"/><path d="M787.17,588.53a30.13,30.13,0,0,0,6.3,14.4,25.81,25.81,0,0,0,5.57,5.22c3.08,2.06,6.34,2.52,7.66,6.63l2.41-.66c-1.11-2.69-3.16-8.18-7-6.38-4.12,1.92-2.44,7.31-1.14,10.36.59,1.39,2.53.33,2.29-1-.53-2.84-1.11-8.72-4.79-9.24a1.29,1.29,0,0,0-1.58,1.2c-.87,7.08-5,12.37-10.93,16-3.76,2.31-7.5,4.33-10.56,7.57l2.09,1.21c2.51-6.09,8.42-10.29,11.39-16.26A40.4,40.4,0,0,0,793,600.79l-2.33.63c3.49,6-1.11,13.34-3.5,19l2.41.67c.76-5.4,6-8.52,6.45-14.11.11-1.61-2.38-1.6-2.5,0a20.71,20.71,0,0,1-8,14.85c-1.26,1,.52,2.77,1.77,1.77A22.91,22.91,0,0,0,796,607h-2.5c-.38,5.15-5.63,8.28-6.36,13.44a1.25,1.25,0,0,0,2.41.67c2.77-6.57,7.28-14,3.24-20.93a1.25,1.25,0,0,0-2.32.63,37.09,37.09,0,0,1-6.18,19.71c-3,4.41-7.17,7.7-9.23,12.71-.49,1.18,1.28,2.07,2.09,1.21,4.35-4.6,10.5-6.61,15.14-10.84a23.76,23.76,0,0,0,7.08-14.48l-1.58,1.21c2.06.29,2.75,6,3,7.49l2.28-1q-2.68-3.51,1.77-5.58a18,18,0,0,1,1.81,3.52c.59,1.44,2.92.91,2.41-.66-1.74-5.41-4.5-5.3-8.81-8.13-6.08-4-9.6-11.17-10.71-18.13-.26-1.58-2.67-.91-2.42.67Z"/><path d="M714.15,486.14a32.54,32.54,0,0,0,4.24-.87c1.16-.33,3.06-1.4,4.19-.65,1.35.9,2.6-1.27,1.26-2.15s-2.79-.67-4.27-.2a37.25,37.25,0,0,1-6.09,1.46c-1.58.22-.91,2.63.67,2.41Z"/><path d="M797,632.94a9,9,0,0,0,4.79-2.28,30.24,30.24,0,0,0,3.47-5.11c.86-1.37-1.3-2.62-2.16-1.27a40.9,40.9,0,0,1-2.74,4.24,6.58,6.58,0,0,1-4,2c-1.57.36-.9,2.77.66,2.41Z"/><path d="M710.81,516.81c6.21,2.77,10.8,11.06,12.67,17.34a1.26,1.26,0,0,0,2.41,0c1.11-3.76,1-8.66-2-11.5l-1.21,2.09,6.88,2.9c.75.32,1.6-.48,1.58-1.21a42.88,42.88,0,0,0-2-12.1l-2.41.66A70.61,70.61,0,0,1,731,540.74a1.26,1.26,0,0,0,2.46.33c1-4.59.24-9.69-.56-14.27L730.8,528a59.93,59.93,0,0,1,9,13.25c2,4.11,3.24,8.5,6,12.18,1,1.26,3.13,0,2.16-1.26a99.1,99.1,0,0,1-7-10.48,1.25,1.25,0,0,0-2.16,1.26,6.91,6.91,0,0,1,.06,7.18l2.29.3c-1.34-3.91.11-8.57.11-12.61s-.76-8.3-.67-12.48h-2.5c.55,8.72,1.33,17.38,5.66,25.15a1.27,1.27,0,0,0,2.29-.3c1.47-4,4.91-6.83,5-11.21a1.26,1.26,0,0,0-2.46-.34c-1.74,5.54-3.07,11.61-5.75,16.77-2.81,5.42-7.21,10.11-11,14.89-1,1.25.77,3,1.77,1.76,3.87-4.91,8.45-9.8,11.36-15.38,2.81-5.39,4.19-11.61,6-17.37l-2.46-.33c-.06,3.79-3.59,7.06-4.89,10.54l2.28-.3c-4.11-7.37-4.8-15.6-5.32-23.88a1.25,1.25,0,0,0-2.5,0c-.11,4.81.81,9.55.63,14.37-.14,3.85-1.26,7.65,0,11.38.32.93,1.78,1.34,2.28.3a10.18,10.18,0,0,0-.06-9.7L738.79,543a100.66,100.66,0,0,0,7,10.48l2.16-1.26c-3.11-4.08-4.43-9.14-6.79-13.64a62.8,62.8,0,0,0-8.6-12.29c-.9-1-2.28.1-2.09,1.21.69,4,1.45,8.92.56,12.95l2.45.33a72.71,72.71,0,0,0-4.35-26.41c-.54-1.49-2.9-.89-2.41.66a40.81,40.81,0,0,1,1.92,11.44l1.58-1.2-6.88-2.9c-1.19-.51-2.05,1.28-1.21,2.08,2,2,2,6.73,1.34,9.07h2.41c-2.06-6.92-6.94-15.76-13.82-18.83-1.46-.65-2.73,1.51-1.26,2.16Z"/><path d="M735.14,573.33c6.85-.93,14-1.92,20.81-.54,2,.39,3.86,1.11,5.85,1.39,3.22.46,6.41-.25,9.33,1.61l.63-2.33a43.72,43.72,0,0,0-19.14,2.91c-.9.35-1.36,1.77-.29,2.29a6.57,6.57,0,0,0,8.11-1.31l-2-.25c.78,1.52.49,2,1.54,3.22,1.6,1.89,4.23,3.49,6.18,5A71,71,0,0,0,778.34,593v-2.15c-2.76,1.54-6.42-3.18-9-3.91-2.74-.77-5.2.73-7.79,1.66a1.26,1.26,0,0,0,0,2.41c1.35.33,2.71.13,4,.42,2.88.63,3.34,3.23,4.76,5.27,2.76,4,8.11,5.34,9.73,10.2l1.84-1.41a30.85,30.85,0,0,0-8.81-3.89c-3.71-.93-7.7-.56-11-2.73L760.81,601c1.09.52,3.17,1.16,4.09,1.94s1.51,2.48,2.1,3.61c2,3.77,4,7.67,2.93,12l2.46.33q-1-15.5-2.58-31c-.17-1.58-2.67-1.6-2.5,0q1.58,15.46,2.58,31a1.26,1.26,0,0,0,2.46.33c1.1-4.33-.25-7.89-2.11-11.8-.82-1.72-1.47-4.43-2.84-5.81s-3.67-2-5.33-2.81a1.25,1.25,0,0,0-1.26,2.16c2.32,1.53,4.72,1.87,7.41,2.25a30.54,30.54,0,0,1,12.39,4.37,1.26,1.26,0,0,0,1.83-1.41c-1.78-5.34-7-6.72-10.05-11-1.25-1.77-1.87-4.19-3.6-5.6-2.47-2-2.91-.09-6.59-1V591c2.58-.93,4.66-2.25,7.45-1.17,1.65.64,2.77,2.16,4.3,3,2,1.07,3.62,1.33,5.65.19a1.25,1.25,0,0,0,0-2.15c-6.74-3.31-15.49-8.23-19-15a1.27,1.27,0,0,0-2-.25l-5.08.92-.3,2.28A42.33,42.33,0,0,1,771.76,576c1.3.09,1.61-1.7.63-2.33a12.36,12.36,0,0,0-6.73-1.73c-3.77-.14-7.11-1.26-10.8-1.82-6.79-1-13.65-.08-20.38.84-1.59.21-.91,2.62.66,2.41Z"/><path d="M686.52,546.45c2,1.14,5,1.87,6.58,3.39,1.84,1.79,2.42,4.71,2.38,7.14-.08,3.93-1.41,8-2.34,11.82-.61,2.51-1.14,4.33-3.76,1.79a12.57,12.57,0,0,1-3.22-5.3,8.66,8.66,0,0,1,1.1-7.69c1.35-1.83,5.2-3.32,7.17-4.5a1.27,1.27,0,0,0,.45-1.71l-2.55-3.79c-.89-1.33-3-.14-2.16,1.26a66.51,66.51,0,0,1,5.17,10.55c.57,1.49,3,.84,2.41-.67a70.3,70.3,0,0,0-5.42-11.14l-2.16,1.26,2.55,3.79.45-1.71c-5.07,3-10.45,5.26-10,12a15,15,0,0,0,8,12,1.24,1.24,0,0,0,1.26,0c2.19-1.63,2.61-3.64,3.24-6.25.85-3.56,1.93-7.2,2.17-10.86a12.82,12.82,0,0,0-1.95-8.44c-2.08-2.9-5.24-3.38-8.18-5.09a1.25,1.25,0,0,0-1.26,2.16Z"/><path d="M711.31,608.17a7.34,7.34,0,0,0,3.46,1.27,38.09,38.09,0,0,1,7.71,2c2.31.91,5.78,1.64,7.69,3.13,3.52,2.76,2.8,7.44,2,11.31l2.46.33c-.48-5.67-1.61-11.29-6.18-15.08-.86-.72-2.56-.07-2.09,1.21.35.94,1.49,2.24,1.65,3.09.82,4.56-6.26,5.18-8.72,4.19-4.83-1.92-6.89-8-7.32-12.74-.14-1.59-2.64-1.6-2.5,0,.58,6.47,4.24,15.42,11.87,15.88,2.89.17,7-1.47,8.86-3.82,2.13-2.78-.46-4.62-1.43-7.26l-2.09,1.22c4.05,3.36,5,8.31,5.45,13.31.11,1.31,2.14,1.8,2.45.33.93-4.4,1.94-11.14-2.64-13.86-2.66-1.58-5.91-2.52-8.78-3.65a31.75,31.75,0,0,0-5.21-1.71c-1.86-.38-3.74-.15-5.36-1.34-1.3-1-2.55,1.22-1.26,2.16Z"/><path d="M729.89,552.57q-7.93,14.79-16.06,29.48a1.27,1.27,0,0,0,1.41,1.84c7-1.56,13.86-.77,20.81.65a48.72,48.72,0,0,0,6.5,1.35c1.63.1,4.44-1.4,5.72-1.07a1.25,1.25,0,0,0,.67-2.41c-1.83-.47-3.36.32-5.28.51-3.88.37-7.78-1-11.62-1.66a45.78,45.78,0,0,0-17.46.22l1.41,1.83q8.12-14.68,16.06-29.47c.76-1.42-1.4-2.68-2.16-1.27Z"/><path d="M731.56,570.72c-1.39,2.61-4.34,3.76-6.84,5.06s-4.9,2.46-7.39,3.63l1.71,1.71a21.14,21.14,0,0,1,8.17-7.27,1.25,1.25,0,0,0-1-2.28,18.06,18.06,0,0,0-4.11,1.84l1.51,2c1.73-1.39,3.38-2.85,5-4.4,1-.94-.06-2.28-1.22-2.09l-3.8.63.66,2.41,6.39-1.54a1.26,1.26,0,0,0,.3-2.28l-3.38-2c-1.3-.77-2.36.91-1.51,2l1.3,1.61,1.76-1.77a12,12,0,0,1-2.94-3.33,1.25,1.25,0,0,0-2.16,1.26c1.85,3.37,1.52,6.92,1.68,10.61.09,2,.26,4.12,1.63,5.73,2.15,2.53,6.16,2.17,7-1.22a1.25,1.25,0,0,0-2.41-.67q-3.93.47-3.68-2.77c0-.74-.06-1.49-.06-2.23,0-1.37,0-2.74-.13-4.1a16.08,16.08,0,0,0-1.88-6.61L724,565.86a13.64,13.64,0,0,0,3.34,3.84,1.25,1.25,0,0,0,1.76-1.77l-1.29-1.61-1.52,2,3.38,2L730,568l-6.38,1.54c-1.59.39-.89,2.67.66,2.41l3.81-.63-1.22-2.09c-1.59,1.55-3.24,3-5,4.4-1.12.9.32,2.68,1.52,2a15.71,15.71,0,0,1,3.52-1.59l-1-2.29a23.65,23.65,0,0,0-9.07,8.17c-.7,1.14.65,2.21,1.71,1.71,3.25-1.53,6.47-3.11,9.63-4.82,2.26-1.22,4.26-2.45,5.5-4.77.75-1.42-1.4-2.68-2.16-1.26Z"/><path d="M737.21,581.51c-1.9-1.64-8.89-6.74-7.6-9.64l-2.28-.3c.66,1.7,1.27,5,3,6s4.73-.68,6.44-1.27l-1-2.28-4.21,2.09,1.26,2.15c3.46-1.95,7-3.75,10.59-5.42,1.47-.67.19-2.79-1.26-2.15A18.66,18.66,0,0,1,738.4,572c-3.39-1.77-4.19-3.56-2.39-5.4.76-1.08-.68-2.27-1.71-1.71l-3.9,2.14,1.52,2a18.9,18.9,0,0,1,5-4l-1.26-2.16-8.47,5.09,1.51,2c2.95-2.59,6.36-3.51,9.5-5.63,2.09-1.42,3.36-3.5,5.65-4.71,1.42-.75.16-2.91-1.26-2.16-3.12,1.65-4.89,4.34-8.17,5.85a30.55,30.55,0,0,0-7.49,4.88c-1.07.94.31,2.69,1.52,2l8.47-5.09a1.25,1.25,0,0,0-1.26-2.16,20.59,20.59,0,0,0-5.5,4.43,1.26,1.26,0,0,0,1.52,2l3.9-2.14-1.71-1.71c-1.68,2.4-3.41,5.88-.83,8.35s7.63.38,10.46-.86l-1.26-2.15c-3.61,1.66-7.13,3.46-10.59,5.42-1.41.79-.17,2.86,1.26,2.15l4.21-2.08a1.26,1.26,0,0,0-1-2.29c-.61.21-3.12,1.4-3.74,1.28-1.51-.3-2.23-3.18-2.66-4.28-.34-.88-1.8-1.39-2.29-.3-2.38,5.36,4.54,9.68,8,12.67,1.21,1.05,3-.71,1.77-1.77Z"/><path d="M734.45,578.45c4.47-2.56,9.61-6.62,14.9-6.9,1.6-.08,1.61-2.58,0-2.5-5.91.31-11.19,4.4-16.17,7.24a1.25,1.25,0,0,0,1.27,2.16Z"/><path d="M746.17,591.71c-12.95-3.25-26.73-1-39.21-6.16l.75,1.84A65.21,65.21,0,0,0,715,570.62a43.57,43.57,0,0,1,4.11-9.91c1.69-2.89,3.19-5.51,3.78-8.84h-2.41c.5,3.15-2.06,5.39-3.36,7.88a23.39,23.39,0,0,0-1.88,5.28,1.29,1.29,0,0,0,.87,1.54c3.67,1.27,6.15-.48,9.88-1l-.34-2.45a35.24,35.24,0,0,1-9.2,1.07v2.5a18,18,0,0,0,8.92-3c1.13-.74.44-2.75-1-2.29a102.22,102.22,0,0,0-10.3,4,1.26,1.26,0,0,0,0,2.16,16.31,16.31,0,0,0,5.9,1.54l-.89-2.13a26,26,0,0,0-6.39,9.7l2.41.66a10.72,10.72,0,0,1,1.3-4.41l-2.15-1.26c-1.71,3.91-4.47,8.23-4.9,12.53-.07.73.64,1.18,1.25,1.25a39.1,39.1,0,0,0,11.48-.3,22.34,22.34,0,0,1,7.25-.48,7.93,7.93,0,0,0,3.29,0c.88-.14,1-1.18.74-1.83a11.83,11.83,0,0,0-3.56-4.74c-1.22-1-3,.69-1.77,1.77,2.33,2.07,8.8,5.61,4,9.12l1.84,1.41a16.79,16.79,0,0,0,.85-4.25,1.25,1.25,0,0,0-.62-1.08c-1.32-.74-2.39-.23-3.86.05a62,62,0,0,1-12.31,1,1.25,1.25,0,0,0,0,2.5,64.49,64.49,0,0,0,12.87-.78c1.42-.22,1-2.45-.33-2.45a199.86,199.86,0,0,1-21.46-1.2,1.27,1.27,0,0,0-.89,2.14l1.5,1.32c1.21,1.06,3-.7,1.77-1.77l-1.5-1.32-.88,2.13a199.86,199.86,0,0,0,21.46,1.2l-.33-2.46a60.88,60.88,0,0,1-12.21.69v2.5a66.91,66.91,0,0,0,9.06-.47c2.29-.3,5.33-1.81,4.47,1.56-.25,1,.91,2.09,1.84,1.41,1.69-1.23,4.07-3.3,3.68-5.72-.47-2.9-5.19-5.57-7.16-7.32L728.06,580a11,11,0,0,1,3.18,4.23l.74-1.84c-2.69.44-5.45-.49-8.27,0a44.49,44.49,0,0,1-13.08.68l1.25,1.25c.36-3.61,3.12-8,4.55-11.27.63-1.45-1.46-2.73-2.15-1.26a16.42,16.42,0,0,0-1.56,5,1.25,1.25,0,0,0,2.41.66,23.22,23.22,0,0,1,5.75-8.59,1.27,1.27,0,0,0-.88-2.14,10.16,10.16,0,0,1-4.64-1.2v2.16a97,97,0,0,1,9.71-3.78l-1-2.28a15.18,15.18,0,0,1-7.66,2.63,1.25,1.25,0,0,0,0,2.5,37.29,37.29,0,0,0,9.87-1.16c1.32-.34,1.09-2.65-.33-2.46-3,.39-6.2,2.1-9.21,1.06l.87,1.53c1.26-5.09,6.1-9.09,5.24-14.48a1.26,1.26,0,0,0-2.41,0c-1.1,6.17-5.67,11.17-7.46,17.21-1.69,5.7-4.19,12.71-7.47,17.7a1.27,1.27,0,0,0,.75,1.84c12.59,5.18,26.17,2.89,39.2,6.16,1.56.39,2.23-2,.67-2.41Z"/><path d="M738.43,602.05c-4.66-4-8.45-10.6-14.63-12.21a1.26,1.26,0,0,0-1.22,2.09,38.36,38.36,0,0,1,6.12,7.67l1.71-1.71a38.63,38.63,0,0,0-14.94-4.15c-1.39-.1-1.73,2.21-.33,2.45a31.52,31.52,0,0,0,8.23.39,1.26,1.26,0,0,0,.34-2.46c-6.35-2.18-22.39-1.57-16.48-12.76,1.37-2.6,3.17-4.93,4.39-7.61,1.39-3,1.41-6.82,3.63-9.42,1-1.21-.64-3-1.77-1.77l-5.75,6,2.09,1.21c.81-5.53,1.41-10.88.07-16.38l-2.29,1A14.87,14.87,0,0,1,709,565.83c-1.06,3.57-3.87,6.17-6,9.08-1,1.29,1.21,2.54,2.16,1.26a30.64,30.64,0,0,0,4.2-7.78l-2.45-.33c-.28,5.3-3.76,8.76-7.37,12.2l2.09,1.21a13.06,13.06,0,0,1,2.07-3.9c.58-.85-.4-2.25-1.41-1.83-2.34,1-4.64,2-6.9,3.1-1.19.59-.51,2.25.63,2.33l5.65.36-1.2-1.58-1.54,1a1.27,1.27,0,0,0-1.41,1.84c2.62,4.53,5.33,10.78,9.23,14.33,3.43,3.12,5.81-.1,9.67-.3a1.25,1.25,0,0,0,.33-2.45l-9.5-2.75-.33,2.45c2.84-.3,8.58.34,10.71-2a1.21,1.21,0,0,0,.32-1.21c-1.77-4.33-7.07-7-11.21-8.49-1.11-.41-1.85.94-1.41,1.83a26.8,26.8,0,0,0,3.63,5.53l1.76-1.77L704,582.21a1.25,1.25,0,0,0-2,1.51l1.62,3.21,1.41-1.84-2.36-.63c-1.23-.55-2.58.89-1.51,2,2.23,2.26,3.77,3.9,4.1,7.18.11,1.09-.1,3.35,0,4.5a3.6,3.6,0,0,0,1.79,2.85c1.43.69,2.29,0,3.51-.69,3.6-2.11,6.5-4,10.74-4.89,1.58-.31.91-2.72-.67-2.41a27.5,27.5,0,0,0-6.14,1.91c-1.33.62-2.65,1.77-4,2.3-1.78.71-1.64,2.68-2.32-2.12-.64-4.57-2-7-5.32-10.39l-1.52,2a6.89,6.89,0,0,0,3,.89,1.27,1.27,0,0,0,1.41-1.84l-1.62-3.21-2,1.52,6.69,5.85a1.25,1.25,0,0,0,1.76-1.77,23.46,23.46,0,0,1-3.23-5L706,584.88c1.15.42,8.6,3.5,8.37,5.22s-6.23,1.38-7.52,1.52a1.26,1.26,0,0,0-.33,2.46l9.49,2.75.34-2.46c-4.09.22-6.44,2.59-10-1.81-2.64-3.28-4.65-7.35-6.75-11l-1.41,1.83c2.35.37,3.9-.47,4.61-2.8a1.26,1.26,0,0,0-1.21-1.58l-5.65-.36.63,2.33c2.08-1,4.14-2,6.3-2.85l-1.41-1.84a20.85,20.85,0,0,0-2.32,4.5c-.47,1.23,1.25,2,2.09,1.22,4.16-4,7.78-8,8.1-14,.08-1.49-2-1.58-2.46-.33a27.92,27.92,0,0,1-4,7.18l2.16,1.26c3-4,6.2-7.25,6.86-12.48a17.24,17.24,0,0,0-2.18-10.59,1.25,1.25,0,0,0-2.28,1c1.24,5.1.68,9.92-.08,15.05-.16,1.14,1.14,2.2,2.09,1.21l5.76-6-1.77-1.77c-2.89,3.39-2.91,8-5,11.88-1.94,3.56-5.43,7.38-5.47,11.67-.09,8.88,14.48,8.51,20,10.42l.33-2.45a28.69,28.69,0,0,1-7.57-.3l-.33,2.46a35,35,0,0,1,13.68,3.81,1.26,1.26,0,0,0,1.71-1.71,40.46,40.46,0,0,0-6.51-8.18l-1.22,2.09c5.3,1.38,9.41,8,13.54,11.57,1.21,1,3-.71,1.76-1.77Z"/><path d="M763.32,623.09a19.51,19.51,0,0,1-6,8.45,29.25,29.25,0,0,0-5.17,5.08c-3.35,4.36-5.28,9.62-7.16,14.73l2.45.33a143.9,143.9,0,0,0,1.11-17.6,1.26,1.26,0,0,0-2.33-.63,107.27,107.27,0,0,1-18.18,24l1.77,1.77c5.07-6.36,8.52-12.37,8-20.78-.09-1.6-2.59-1.61-2.5,0,.47,7.8-2.59,13.12-7.29,19-1,1.23.6,2.94,1.77,1.77a110,110,0,0,0,18.57-24.49l-2.33-.63a145.91,145.91,0,0,1-1.11,17.6c-.16,1.49,2,1.56,2.46.33,2.33-6.31,4.8-12.78,10-17.34,3.95-3.49,6.35-6,8.39-10.91.62-1.49-1.8-2.13-2.41-.67Z"/><path d="M705.18,518.91a36.59,36.59,0,0,0-14.36,1.81c-2.66.89-5.39,1.94-8.25,1.94-3.71,0-7.19-1.67-10.46-3.23a1.27,1.27,0,0,0-1.84,1.41c2.24,7.26,10.5,6.45,15.8,10.14l.63-2.33c-5.25-.31-11-1.28-16.21-.51-4.59.68-8.46,4-13.2,3.6l.34,2.46c6-1,12.57-1.87,17.35,2.82,1.14,1.13,2.91-.64,1.76-1.77-5.47-5.38-12.76-4.63-19.78-3.46-1.48.24-1,2.34.33,2.45,4.55.39,7.72-2.21,12-3.31,5.45-1.42,12-.1,17.46.22,1.34.08,1.57-1.68.63-2.33-4.44-3.08-12.84-2.76-14.65-8.64l-1.84,1.41c4.63,2.19,9.24,4.15,14.45,3.3,3-.48,5.67-1.69,8.51-2.53a33,33,0,0,1,11.38-1c1.6.07,1.6-2.43,0-2.5Z"/><path d="M696.08,582.05,691,574.19l-2.16,1.26c2.71,4,10.83,12.68,6.37,17.51a1.26,1.26,0,0,0,1.22,2.09,6,6,0,0,1,6.37,1.74c1,.93,2.83-.31,2-1.51l-3.91-5.42-2.15,1.26c1.92,2.57,4.4,4.34,5.12,7.69.66,3.09,0,6.42,0,9.55a1.27,1.27,0,0,0,1.58,1.21c4.09-1,4-4.86,2-7.91l-2,1.51,2.37,3.05,1.76-1.77-3.05-3.37c-1-1.09-2.61.29-2,1.51,1.15,2.17,1,4.69,2.48,6.62-.95-1.24-3-.17-2.16,1.26l.2,1.77h2.16c-2.47-3.91-4.62-8.83-9-10.87a1.25,1.25,0,0,0-1.26,2.16c3.84,2.63,7,8.87,4.33,13-2.21,3.47-5.84,5.6-9.1,8l1.84,1.41c1.1-4.55,3-7.35.65-11.86l-2.16,1.26c2.2,3.88.07,5.77-1.71,8.87-1,1.66-1.33,3.25-2.47,4.86-1.71,2.43-4.42,3.51-6.11,6-.91,1.34,1.26,2.59,2.16,1.27,1.57-2.32,4.33-3,6-5.15,1.5-1.84,1.68-4.28,2.93-6.27,2.35-3.76,3.74-6.58,1.32-10.84-.8-1.41-2.89-.17-2.16,1.26,1.88,3.64,0,6.44-.9,9.94-.23.95.91,2.1,1.84,1.41,4.35-3.25,11.21-6.91,11.71-13.06.37-4.58-3.33-9.86-7-12.33L697,603.53c3.84,1.78,5.94,6.53,8.12,10,.45.7,1.77.91,2.16,0a4,4,0,0,0-.2-4.3l-2.16,1.26c.6.78.9,1.07,1.94.95a1.23,1.23,0,0,0,1.08-.62c1.35-3.19.38-6.51-1.18-9.47l-2,1.51,3.06,3.38c1.1,1.22,2.72-.54,1.76-1.77l-2.36-3c-.87-1.13-2.71.33-2,1.51l-.53,4.24,1.58,1.2c0-3.55.72-7.25-.14-10.75s-3.26-5-5.32-7.75c-.94-1.27-3.1-.06-2.15,1.26l3.9,5.42,2-1.51a9.08,9.08,0,0,0-8.81-2.39l1.22,2.09c6-6.52-2.31-15.09-6-20.54-.89-1.33-3-.11-2.16,1.26l5.06,7.86c.87,1.35,3,.1,2.16-1.26Z"/><path d="M687.44,577.93a18.56,18.56,0,0,0,.52,9.18l2.09-1.22q-1.11-3.09,1.05-4.74a1.26,1.26,0,0,0,.63-2.33l-6.26-4.06-.3,2.28,1.72-.17v-2.5l-3.15.2a1.28,1.28,0,0,0-1.08,1.89l3.1,4.46c.74,1.07,2.85.44,2.28-1-2.49-6.19-11-11.05-9.38-18.33h-2.41a9.74,9.74,0,0,1-.55,7.45c-.69,1.45,1.47,2.72,2.15,1.27a12.55,12.55,0,0,0,.81-9.39,1.26,1.26,0,0,0-2.41,0c-1.93,8.58,6.56,12.64,9.38,19.67l2.29-1-3.1-4.47-1.08,1.88,3.15-.2a1.25,1.25,0,0,0,0-2.5,3.3,3.3,0,0,0-2.39.26,1.27,1.27,0,0,0-.3,2.29l6.27,4.06.63-2.33c-4.22-.1-5.12,6.46-2.82,9a1.26,1.26,0,0,0,2.09-1.22,16,16,0,0,1-.52-7.85c.27-1.57-2.14-2.25-2.41-.66Z"/><path d="M684.75,574.92c-2.68-2-5.72-1.67-8.71-.5-4.31,1.7-8.48,3.89-12.69,5.84-1.45.68-.19,2.84,1.27,2.16l8.65-4c3.17-1.47,6.91-3.79,10.21-1.32,1.29,1,2.54-1.21,1.27-2.16Z"/><path d="M665.16,581.91a27.84,27.84,0,0,0,6.31,1.05c2,.19,3,2.18,4.87,2.76a1.26,1.26,0,0,0,1.22-2.09,43,43,0,0,1-4.63-6.1c-.85-1.36-3-.11-2.16,1.26a46.11,46.11,0,0,0,5,6.6l1.22-2.08c-1.78-.56-2.58-2.35-4.55-2.74a16.75,16.75,0,0,0-2.35-.14,16.14,16.14,0,0,1-4.28-.93c-1.54-.5-2.19,1.91-.67,2.41Z"/><path d="M679.59,576.55a6.2,6.2,0,0,1,4.47,1.14c1.33.91,2.58-1.25,1.26-2.16a8.74,8.74,0,0,0-6.4-1.39c-1.58.24-.91,2.65.67,2.41Z"/><path d="M672.13,555.15a19.28,19.28,0,0,0-2,13.93c.78,3.13,2.45,7.49,6.32,6.48a1.27,1.27,0,0,0,.29-2.29,11.24,11.24,0,0,1-5.34-5.14L670.33,570a11.75,11.75,0,0,1,6.23,1.62c1.2.65,2.61-1,1.51-2a11.09,11.09,0,0,0-4.37-2.52c-1.4-.46-2.1,1.53-1,2.28a17.1,17.1,0,0,1,4.4,4.06l1.21-2.08c-1.64-.23-8.81-4.28-8.81-4.29l-2.41.67c.35.93,3.47,5.16,3.2,5.67A35.19,35.19,0,0,1,666.6,575c-1.46.77-2.81,1.79-4.2,2.67-6.89,4.41-14.11,8.23-21.13,12.39-3.51,2.08-7,4.23-10.3,6.58-2.11,1.5-4.88,3.13-6.19,5.44-2.89,5.11,2.3,11.15,4.7,15.29l11.79,20.36c2.81,4.85,5.73,11.09,11.4,13.14s12.45-1.94,17.59-4.37c6.38-3,12.25-6.69,16.8-12.16,1-1.23-.74-3-1.77-1.77a41.25,41.25,0,0,1-12.7,10c-4.57,2.43-11.38,6.71-16.65,6.47-6.91-.31-10.4-8.91-13.35-14L634.44,621c-2.22-3.83-9.9-13.16-7.51-17.6,1.4-2.58,5.09-4.42,7.46-6s4.89-3.16,7.39-4.65c4.76-2.84,9.62-5.5,14.4-8.3s10.25-7.69,15.88-8.57a1.25,1.25,0,0,0,.92-1.21l.11-2a1.22,1.22,0,0,0-.32-1.22,7.75,7.75,0,0,1-3.23-4.32c-.56-1.48-2.93-.88-2.41.67,1.48,4.37,6.39,5.45,10.56,6a1.27,1.27,0,0,0,1.22-2.09,20,20,0,0,0-4.91-4.46l-1,2.29,3.27,1.88,1.51-2a15.47,15.47,0,0,0-7.49-2,1.26,1.26,0,0,0-1.08,1.88,13.34,13.34,0,0,0,6.24,6l.3-2.28c-3,.77-3.72-7.5-3.7-8.84a16.9,16.9,0,0,1,2.2-7.9c.75-1.41-1.4-2.68-2.16-1.26Z"/><path d="M665,611c-1.55-3.07-3.17-6.09-5-9-1-1.58-2-4-3.67-5.1-3.24-2.22-8.29.33-11,2.36A16.5,16.5,0,0,0,638.85,611c-.52,6.35,2.89,11.21,6.3,16.22,3,4.36,5.45,7.31,10.91,8,4.55.6,9.73-.21,13.46-3,9.24-7-5.8-21.16-8-28.66a1.25,1.25,0,0,0-2.41.67c1.92,6.67,7,11.64,9.5,18.06.77,2,1.75,5.13.33,7.14s-4.8,2.82-7.1,3.2c-5.32.88-9.86-.11-13.17-4.63-5.3-7.22-11.22-16.59-4-24.83,3.52-4,8.47-5.7,12.24-1.44,2.48,2.8,4.19,7.21,5.85,10.5.72,1.44,2.88.17,2.16-1.26Z"/><path d="M642.63,604.93a35.3,35.3,0,0,1,3.72,5.8,1.26,1.26,0,0,0,2,.25c.79-.86,2.19-2.3,2,.07,0,.43-.18,1.33-.73,1.49-.26.34-.4.26-.43-.22-.31-.4-.19-.62.35-.66,1.47-.65.2-2.8-1.26-2.16-1.82.81-3.12,2.94-1.83,4.8s3.87,1.17,5.2-.2a4.63,4.63,0,0,0,.36-5.92c-1.78-2.28-4-.59-5.44,1l2,.25a38.51,38.51,0,0,0-4.11-6.3c-1-1.26-2.77.52-1.77,1.76Z"/><path d="M662.52,632.67a10.43,10.43,0,0,1-1.47-2.6c-.14-.42-.26-.85-.36-1.28q-.39-.07.09-.27c.11-.34.69-.75.85-1.16a3.28,3.28,0,0,0,.21-1.49c-.16-2-2.51-4.67-4.67-4.14a9.77,9.77,0,0,0-3.51,1.69,2.79,2.79,0,0,0-.5,3c.75,2.7,3.33,2.35,5.1.85,1.23-1-.54-2.8-1.76-1.76-.57.45-1,.41-1.26-.13l.58-.28a4,4,0,0,1,2.19-.77,1.88,1.88,0,0,1,1,2.42c-.14.3-.56.46-.72.82-.82,1.88,1,5,2.1,6.39s3.12,0,2.16-1.26Z"/><path d="M641.88,623.84l-2.71,1.39c-.46.23-.6.38-1.11.25a3,3,0,0,1-1.13-.87l-.56,2.09a.89.89,0,0,1,.87.26l.3-2.28c-.83.17-1.39-.78-1.76-1.32l-1.41,1.84c1.07.37,1.54,1.52,2,2.43.34.61,1.84,2.14,1.77,2.78l1.88-1.08a2.1,2.1,0,0,1-1-1.18c-.62-1.48-2.77-.21-2.15,1.26a4.23,4.23,0,0,0,1.88,2.08,1.27,1.27,0,0,0,1.88-1.08c.18-1.71-1.58-3.09-2.35-4.48a6.11,6.11,0,0,0-3.3-3.14,1.26,1.26,0,0,0-1.42,1.83c1.14,1.66,2.45,2.91,4.58,2.47a1.27,1.27,0,0,0,.3-2.29,3.4,3.4,0,0,0-2.79-.51,1.26,1.26,0,0,0-.55,2.09c.88.86,2.15,1.87,3.46,1.75,1.5-.14,3.2-1.45,4.52-2.13s.17-2.89-1.26-2.16Z"/><path d="M660.78,540.81c2,.67,6.53,1.48,7.74,3.19,2.48,3.46.45,2.24-.68,3.9-1.71,2.5-3.86,4.09-5,7.07-2.76,7,.52,12.32,3.13,18.68.6,1.45,2.86.94,2.42-.66l-.52-1.85a1.25,1.25,0,0,0-2.41.66l.51,1.85,2.42-.66c-1.87-4.54-4.75-8.91-4-14a14.31,14.31,0,0,1,3.34-7.31c1.21-1.41,3.25-2.37,4.26-3.88,3.67-5.49-7-8.25-10.49-9.4-1.53-.5-2.19,1.91-.66,2.41Z"/><path d="M665.7,543.49c5.36,5.27-3.47,5.06-5.6,4.68a34.94,34.94,0,0,1-4.63-1.31l-.34,2.45c1,0,5.21,2.56,5.42,4,.47,3.16-2.75,2.35-4.13,2.8-2.76.89-5.65,1.15-8.41,2.19a43.72,43.72,0,0,0-13.33,8.11c-1.22,1.06.54,2.78,1.77,1.76a7.78,7.78,0,0,1,10.38,0,1.27,1.27,0,0,0,2.09-.55c.37-1.28-.21-3.18.68-4.15.7-.76,4.39-.76,5.3-.86,1.89-.21,3.79-.3,5.69-.36l-.63-2.33a25,25,0,0,1-15.37,2.26l-.34,2.46c7.65,0,16,.83,20.14,8.27l2-1.52a39.29,39.29,0,0,1-5.47-8.33c-.66-1.36-2.51-.34-2.28,1a36.7,36.7,0,0,0,2.82,9l1.41-1.84c-2.91-.86-6-4.15-8.31-6L648.19,560c-.84-.68-2.61-.08-2.09,1.21a22.69,22.69,0,0,0,16.83,14.14,1.26,1.26,0,0,0,1-2.29c-3.2-2-6.87.4-9.71-2.87-1.41-1.63-2.63-2.83-4.9-2.36-8.45,1.76-12.76,12.67-20.94,14.35a1.26,1.26,0,0,0-.75,1.84c1.15,2.32,2.9,7.43,5.46,8.56,2.21,1,4-1.22,5.43-2.49,7.45-6.62,16.47-10.89,25.43-15.06l-1.26-2.16c-4.27,2.74-8.61,5.34-13.09,7.72-2.1,1.12-4.23,2.2-6.37,3.23-1,.47-8.5,4.75-8.16.8l-2.33.64c6.47,9.88,17.55-4.42,21.08-9.78a1.26,1.26,0,0,0-1.41-1.84c-6.11,2.08-9.94,7.35-15.54,10.29l1.88,1.08c.2-4.74,7.78-10.28,11-13.32L647.94,570l-6.61,7.21a1.25,1.25,0,0,0,1.77,1.77l6.9-5.75-1.77-1.77q-7.1,6.08-14.57,11.66a1.27,1.27,0,0,0,0,2.16c3.18,1.56,6.39,3,9.65,4.38l-.3-2.29-1.14.72c-1.36.86-.1,3,1.26,2.16l1.14-.72a1.26,1.26,0,0,0-.3-2.28q-4.59-1.92-9.05-4.13v2.16q7.74-5.79,15.08-12.05c1.23-1-.55-2.79-1.77-1.77l-6.9,5.75,1.77,1.77,6.61-7.21a1.25,1.25,0,0,0-1.77-1.77c-4,3.77-11.48,9.15-11.73,15.09a1.26,1.26,0,0,0,1.88,1.08c5.36-2.82,9.13-8.06,14.94-10l-1.41-1.83c-2.27,3.45-11.94,17.14-16.76,9.77a1.26,1.26,0,0,0-2.33.63,6.82,6.82,0,0,0,1.23,4.93,1.28,1.28,0,0,0,1.42.57,185.91,185.91,0,0,0,28.73-15.09,1.25,1.25,0,0,0-1.26-2.16,144.21,144.21,0,0,0-18.46,9.71,61.74,61.74,0,0,0-6.86,5.19c-1.9,1.67-2.78,2.35-4.85.06-1.2-1.33-2-3.49-2.73-5.07l-.75,1.83c3.08-.63,5.19-2.35,7.46-4.43a71.51,71.51,0,0,1,10.43-8.25c2.64-1.65,3.63-1.43,5.9.53.7.61,1.11,1.47,1.94,2,2.59,1.57,5.55-.66,7.9.81l1-2.28a20.13,20.13,0,0,1-15.08-12.39l-2.09,1.21,9.15,7.39c2.11,1.7,4,3.62,6.59,4.41a1.27,1.27,0,0,0,1.42-1.84,33.64,33.64,0,0,1-2.57-8.39l-2.29,1a41.31,41.31,0,0,0,5.87,8.84c.95,1.11,2.62-.31,2-1.51-4.52-8.22-13.73-9.47-22.3-9.51-1.36,0-1.75,2.22-.33,2.45a28,28,0,0,0,17.3-2.51,1.26,1.26,0,0,0-.63-2.33c-3.35.1-9.72-.24-12.76,1.67-2.37,1.48-.69,3.35-1.32,5.53l2.09-.55a10.44,10.44,0,0,0-13.92,0l1.77,1.76a40.54,40.54,0,0,1,14.46-8.24c3-.94,6-1,9-1.7,1.2-.26,2.2-.1,3.13-1.13,3.45-3.82-4.36-10.36-7.9-10.28a1.26,1.26,0,0,0-.33,2.46c4,1.29,10.27,3.25,13.93,0,2.78-2.49.93-5.39-1.26-7.54a1.25,1.25,0,0,0-1.77,1.77Z"/><path d="M662.86,519.44c-4.44-5.17-10.82-3.48-16.38-1.37-8.88,3.37-17.7,6.91-26.55,10.37l1.22,2.09A32.31,32.31,0,0,1,642,519.69l-.63-2.33c-18.64,9.92-34.69,28.19-30.16,50.7.23,1.16,2.23,1.23,2.41,0,1-6.69,4.78-12.83,8-18.68a73.61,73.61,0,0,1,11.61-16.18l-1.76-1.77-17.71,19.09,1.76,1.77c2.86-3.54,4.65-7.7,7.31-11.35,3.79-5.2,9.79-8.66,15.2-12a103.49,103.49,0,0,1,15-7.93c.68-.26,5.1-2,4.48.23-.19.68-2,1.49-2.65,1.82-2.15,1.1-4.63,1.55-6.88,2.4-7.43,2.82-12.73,8.78-17.18,15.15a284.59,284.59,0,0,0-17.34,29h2.16c-4.53-7-.41-14.42,3.75-20.45l-2.29-1A82.75,82.75,0,0,1,613.2,564c-.47,1.34,1.61,2.19,2.28,1,3.27-6,6.64-11.76,12-16.1,3.65-2.93,7.21-5.48,8.73-10.09.32-1-1-2.07-1.84-1.41a41,41,0,0,0-11.57,13.11l2.33.64a20.77,20.77,0,0,1,7.07-16.76l-2-1.51a62.82,62.82,0,0,1-6.35,10l2,1.51,11.85-16a1.26,1.26,0,0,0-1.08-1.88c-6.39.06-10.57,4.58-14.3,9.28-.8,1,.26,2.87,1.51,2a131.21,131.21,0,0,1,31.85-17.12l-1.41-1.84c-2.19,4.6-7.6,6.67-11.82,9-3.78,2.11-8,4-11.42,6.57-5.34,4-4.86,10.65-6.78,16.44a1.27,1.27,0,0,0,1.54,1.54c6.68-1.72,11.31-12.29,18.62-10.21v-2.41a42.45,42.45,0,0,0-24.64,24c-.55,1.37,1.55,2.1,2.29,1,3.69-5.73,8.55-10.33,13.53-14.91l-1.76-1.77a89.43,89.43,0,0,0-15.46,27.73h2.41a21,21,0,0,1-.51-12l-2.46-.34L616.73,574a1.26,1.26,0,0,0,2.33.63,50.09,50.09,0,0,0,4-11.43h-2.41c1.51,3.74-.78,6.85-2.09,10.22a26.56,26.56,0,0,0-1.79,8.67c-.27,6.56,1.61,13.07,3.43,19.29a1.26,1.26,0,0,0,2.46-.33c.41-4.6,8-4.63,11.2-6.76,1.34-.88.1-3-1.26-2.15a68.52,68.52,0,0,0-10.47,8.37h1.77c-2.05-1.74-4.94-6.25-3.28-9.19,1.14-2,5.35-1.53,7.44-2l-1.21-2.09-3.31,2.93c-.9.8-.09,2,.88,2.13a14,14,0,0,0,5.09-.28c1.35-.3,1.08-2.61-.33-2.45a25.77,25.77,0,0,1-8.12-.34l.3,2.28a21.66,21.66,0,0,1,5.38-2.3,1.27,1.27,0,0,0,.88-1.54,17.13,17.13,0,0,0-2.06-4.21l-2,1.51,1.5,1.63c1.11,1.19,2.8-.56,1.77-1.77l-5.54-6.56a1.26,1.26,0,0,0-2.13.89,102.79,102.79,0,0,0,2,16.48c.33,1.59,2.67.9,2.41-.67l.35-.68c-1.17,1.11.6,2.88,1.77,1.77a7.62,7.62,0,0,0,2.12-3.31,1.25,1.25,0,0,0-.57-1.41c-3.59-2.14-6.72.38-6.08,4.3l2.41-.67a99,99,0,0,1-1.94-15.81l-2.14.88,5.54,6.56,1.77-1.77-1.5-1.63c-1-1-2.76.33-2,1.52a10.46,10.46,0,0,1,1.8,3.61l.87-1.54a24,24,0,0,0-6,2.56,1.27,1.27,0,0,0,.3,2.29,27.8,27.8,0,0,0,8.78.43l-.34-2.46a8.84,8.84,0,0,1-4.42.19l.89,2.14,3.3-2.93c1-.88-.08-2.33-1.21-2.09a22.16,22.16,0,0,1-7,.41,1.21,1.21,0,0,0-1.08.62,11.49,11.49,0,0,0,2.82,14.31,1.29,1.29,0,0,0,1.77,0,66.06,66.06,0,0,1,10-8l-1.26-2.15c-4.43,3-11.83,2.11-12.44,8.91l2.45-.34c-2.18-7.44-4.61-15.58-2.71-23.35,1.21-5,5.3-9.53,3.16-14.82-.41-1-2.12-1.33-2.41,0a47.49,47.49,0,0,1-3.71,10.83l2.33.63,1.11-10.56c.15-1.41-2.13-1.68-2.46-.33a23.53,23.53,0,0,0,.52,13.35,1.26,1.26,0,0,0,2.41,0,86,86,0,0,1,14.81-26.62,1.25,1.25,0,0,0-1.76-1.77c-5.15,4.73-10.13,9.51-13.93,15.41l2.28,1a39.73,39.73,0,0,1,22.89-22.3,1.26,1.26,0,0,0,0-2.41c-9-2.56-12.42,8.28-20,10.21l1.54,1.54c1-3.14,1.26-6.43,2.21-9.58,1.58-5.27,6.16-7.09,10.58-9.56,5.66-3.17,14-6.05,17-12.32.42-.88-.3-2.25-1.41-1.83a133.27,133.27,0,0,0-32.45,17.37l1.51,2c3.24-4.07,6.91-8.48,12.54-8.54l-1.08-1.88-11.85,16c-.84,1.13,1.09,2.63,2,1.52a66.12,66.12,0,0,0,6.74-10.46,1.25,1.25,0,0,0-2-1.51,23.09,23.09,0,0,0-7.8,18.52,1.26,1.26,0,0,0,2.33.63,38,38,0,0,1,10.67-12.22l-1.83-1.41c-1.82,5.54-7.68,8.08-11.49,12.06s-6.42,8.77-9,13.53l2.29,1A82.75,82.75,0,0,0,619.45,549a1.25,1.25,0,0,0-2.28-1c-4.7,6.82-8.78,15.19-3.75,23a1.26,1.26,0,0,0,2.16,0c6.2-11.63,12.65-24.14,21.28-34.18a31.75,31.75,0,0,1,14.76-9.85c3.69-1.22,7.16-2.48,9.1-6.08a1.3,1.3,0,0,0-.19-1.52c-2.25-2.47-5.26-1.92-8.14-.75a109,109,0,0,0-15.63,8.26c-4.55,2.76-9.35,5.65-13.17,9.41-4.18,4.12-6.19,9.74-9.84,14.27-1,1.23.65,3,1.76,1.77l17.71-19.09c1.1-1.18-.63-2.92-1.76-1.77a75.79,75.79,0,0,0-12,16.69c-3.33,6-7.26,12.37-8.27,19.28h2.41c-4.29-21.37,11.46-38.54,29-47.88,1-.56.62-2.47-.63-2.33a35,35,0,0,0-22.59,11.57c-.75.84,0,2.58,1.22,2.09l19.46-7.6c6-2.33,15.74-8.2,21-2,1,1.22,2.81-.56,1.77-1.77Z"/><path d="M642.92,549.78c-3.58,1.62-7.2,1.66-10.22,4.35a26.16,26.16,0,0,0-6.38,8.24c-2.45,5.63-4.17,14.81-.65,20.26l2-1.52a14.88,14.88,0,0,1-4.88-11.9h-2.5a24.8,24.8,0,0,0,1.34,6.64c.53,1.51,2.94.86,2.41-.67a21.31,21.31,0,0,1-1.25-6,1.25,1.25,0,0,0-2.5,0,17.39,17.39,0,0,0,5.62,13.67c1,.94,2.75-.28,2-1.52-3.31-5.12-1.11-15.71,2.33-20.48,2-2.83,4.54-5.63,7.81-7,2-.82,4.2-1,6.21-2,1.46-.67.2-2.82-1.26-2.16Z"/><path d="M746.57,665.39c-1.71-1.5-2-4.53-4.59-5-3.22-.61-5.94,4-8,5.63-4.1,3.2-9,5.06-13.93,6.59a14.64,14.64,0,0,1-8.08.59c-2.1-.51-3.65-1.17-5.83-1l1.08,1.88c2.19-4,6.61-5.84,9.27-9.44.85-1.15-1-2.55-2-1.52a30.2,30.2,0,0,1-12.61,8.29l1,2.28,4.41-2.13a1.26,1.26,0,0,0-.3-2.28,27.47,27.47,0,0,1-9.2-2.95l.25,2c3.68-2.91,8.59-2.73,10.2-7.7.46-1.44-1.51-2-2.29-1a26.79,26.79,0,0,1-17.42,10.74l1,2.28,7-3c1.36-.59.34-2.55-1-2.28-12.87,2.63-23-2.24-34.32-7.72a1.25,1.25,0,0,0-1.26,2.16,201.26,201.26,0,0,0,31.1,18.3l1-2.28-16.45-6.54c-1.38-.55-2.09,1.55-1,2.29,2.25,1.48,4.43,3,6.55,4.7l.89-2.14c-3.44-.08-5.55-2-7.93-4.12a1.26,1.26,0,0,0-2,1.51l2.34,4.41,1.41-1.84-3.32-1.24c-1.18-.44-2.11,1.28-1.22,2.09a76.09,76.09,0,0,0,6.42,5.18l1.26-2.16-1.1-.62-1,2.28a64.88,64.88,0,0,0,15.12,2.07v-2.5a29.47,29.47,0,0,1-10.46-.6V683a33.53,33.53,0,0,1,13.8-1v-2.5a23.18,23.18,0,0,1-7.38-.39l-.33,2.45q6.24-.12,12.49,0a1.26,1.26,0,0,0,.33-2.46,49.61,49.61,0,0,1-14.49-6l-.3,2.29a33.28,33.28,0,0,1,13.77.07V673a31.15,31.15,0,0,1-11.7.46l-.33,2.46a45.51,45.51,0,0,1,11,.25l.34-2.46A35.62,35.62,0,0,1,685,671.79v2.41a31.33,31.33,0,0,1,10-1.8l-.33-2.46a41.51,41.51,0,0,1-12.31,1.18,1.26,1.26,0,0,0-.63,2.33l7.11,3.68.29-2.28a33,33,0,0,1-8.15,1.09,1.25,1.25,0,0,0-.34,2.45l9.09,2.46.33-2.45-6.11-.48v2.5c6.49-.57,12.93,1,18.92-2.23,1.2-.64.49-2.2-.63-2.33l-6.81-.78.63,2.33a26.26,26.26,0,0,1,7.58-2.2c1.27-.19,1.12-2.13,0-2.41a54.19,54.19,0,0,1-6.46-2.12v2.41a9.39,9.39,0,0,1,5,.22l-.3-2.29-4.09,3c-.66.49-1,1.75,0,2.16a29.21,29.21,0,0,0,6.86,2.07l-.55-2.09c-2.33,2.58-9.07,3.2-12.32,4-1.34.31-1.09,2.59.33,2.45a21.39,21.39,0,0,1,10.43,1.54l-.3-2.28a44,44,0,0,1-11.41,5.61c-1.28.41-1.14,2.55.33,2.45,3.89-.26,7.74-.7,11.59-1.3l-.67-2.41a25.69,25.69,0,0,1-8.91.36l.63,2.33c1.35-.83,2.71-1.65,4.08-2.44a1.27,1.27,0,0,0-.29-2.29,40.36,40.36,0,0,0-9.55-1.79,1.26,1.26,0,0,0-.34,2.46l5.71,1.1.33-2.45a22.68,22.68,0,0,1-5,0V686L710,683.87c1.59-.15,1.6-2.66,0-2.5l-21.25,2.12a1.25,1.25,0,0,0,0,2.5,22.68,22.68,0,0,0,5,0c1.28-.13,1.83-2.17.33-2.46l-5.7-1.1-.33,2.45a37.19,37.19,0,0,1,8.88,1.7l-.3-2.28q-2.05,1.2-4.08,2.44a1.26,1.26,0,0,0,.63,2.33,28.55,28.55,0,0,0,9.58-.45c1.6-.34.89-2.65-.67-2.41-3.63.56-7.26,1-10.92,1.21l.33,2.46a46.62,46.62,0,0,0,12-5.86,1.27,1.27,0,0,0-.3-2.29,22.64,22.64,0,0,0-11.09-1.63l.33,2.46c4.07-1,10.47-1.33,13.42-4.61a1.26,1.26,0,0,0-.55-2.09,26,26,0,0,1-6.26-1.82v2.16l4.09-3a1.26,1.26,0,0,0-.3-2.28,15,15,0,0,0-6.29-.22c-1.35.23-1,2,0,2.41a54.35,54.35,0,0,0,6.47,2.12V672.8a28.9,28.9,0,0,0-8.19,2.45c-1.25.58-.44,2.21.64,2.33l6.81.78-.63-2.33c-5.46,2.92-11.75,1.37-17.66,1.89a1.25,1.25,0,0,0,0,2.5l6.11.48c1.43.11,1.67-2.1.34-2.46L681.35,676l-.33,2.46a35.55,35.55,0,0,0,8.82-1.18,1.27,1.27,0,0,0,.3-2.29L683,671.29l-.63,2.33a43.91,43.91,0,0,0,13-1.27,1.25,1.25,0,0,0-.33-2.45,33.37,33.37,0,0,0-10.69,1.89,1.26,1.26,0,0,0,0,2.41,37.54,37.54,0,0,0,14.49,2c1.31-.07,1.8-2.24.33-2.45a48.49,48.49,0,0,0-11.67-.34c-1.28.11-1.84,2.23-.34,2.45a35,35,0,0,0,13-.46,1.26,1.26,0,0,0,0-2.41,36.76,36.76,0,0,0-15.1-.07,1.26,1.26,0,0,0-.3,2.28,51.78,51.78,0,0,0,15.1,6.26l.33-2.45q-6.26-.07-12.49,0c-1.37,0-1.75,2.15-.33,2.46a24.94,24.94,0,0,0,8,.48,1.25,1.25,0,0,0,0-2.5A35.54,35.54,0,0,0,681,680.6a1.26,1.26,0,0,0,0,2.41,31.35,31.35,0,0,0,11.13.69,1.25,1.25,0,0,0,0-2.5,62.35,62.35,0,0,1-14.45-2,1.26,1.26,0,0,0-1,2.29l1.1.62a1.25,1.25,0,0,0,1.26-2.16,67.92,67.92,0,0,1-5.91-4.79l-1.22,2.09,3.33,1.24c1.08.41,1.88-1,1.41-1.83l-2.34-4.41-2,1.52c2.87,2.6,5.7,4.76,9.7,4.85,1,0,1.76-1.45.88-2.13-2.29-1.8-4.63-3.49-7.05-5.09l-1,2.28,16.46,6.54c1.3.52,2.24-1.68,1-2.28a202.12,202.12,0,0,1-31.1-18.31L660,661.81c12,5.81,22.63,10.76,36.25,8l-1-2.29-7,3c-1.39.6-.32,2.51,1,2.29a29.24,29.24,0,0,0,18.91-11.89l-2.28-1c-1.16,3.56-6.77,4.38-9.56,6.6a1.26,1.26,0,0,0,.25,2,29.46,29.46,0,0,0,9.81,3.2l-.3-2.29-4.42,2.13c-1.26.61-.37,2.75,1,2.29a32.82,32.82,0,0,0,13.71-8.93l-2-1.52c-2.7,3.65-7,5.4-9.28,9.45a1.26,1.26,0,0,0,1.08,1.88c3.55-.3,6.55,1.86,10.12,1.46s7.38-2,10.68-3.37a35.84,35.84,0,0,0,8.71-4.88c1.64-1.3,4.41-5.47,7.09-3.57.71.5,1.25,2.12,2,2.81,1.21,1.06,3-.7,1.77-1.77Z"/><path d="M740.86,664.88c-10,11-24,15.36-38.48,15.77a1.25,1.25,0,0,0,0,2.5c5.82.2,11.35.11,16.66-2.53a1.26,1.26,0,0,0-.3-2.28,55.34,55.34,0,0,0-17.16-1.29,1.25,1.25,0,0,0,0,2.5,51.18,51.18,0,0,0,12.12-.07,1.25,1.25,0,0,0,0-2.5,27.16,27.16,0,0,1-8-2.16l-.33,2.46c5.3.12,10.25,3.22,15.6,2.43,4.72-.7,9.12-4.14,13-6.67.93-.61.69-2.5-.64-2.33a72,72,0,0,0-18.61,5c-1,.4-1.38,2.2,0,2.41,5.89.85,11.86,1,17.65-.55,2.78-.75,9.33-2.38,8.82-6.28a1.27,1.27,0,0,0-1.88-1.08c-7,3.9-13.81,10.12-21.65,12.22-2.32.63-12,0-12.17,3.66-.16,3.34,6.94,4.89,9.32,4.33,3-.71,4.37-3.8,6.84-5.38,2.86-1.82,6.16-2.69,9-4.69,1.3-.92.08-3.08-1.26-2.16-4.41,3-9.18,6.23-14.7,6.57-2.22.14-4.28-.67-6.45-.71a43.82,43.82,0,0,0-5.2.6l.33,2.46a27.91,27.91,0,0,1,12.17.12,24,24,0,0,0,7.4.82,1.26,1.26,0,0,0,.63-2.33l-.7-.39a1.25,1.25,0,0,0-1.27,2.16l.71.39.63-2.33c-3.69.31-7-1-10.66-1.48a28.77,28.77,0,0,0-9.57.62c-1.36.3-1.09,2.6.33,2.46,4.54-.44,9.16.64,13.66-.12,5.2-.88,9.68-3.74,14-6.68l-1.26-2.16c-3.23,2.31-7.29,3.2-10.38,5.69-2.86,2.32-5.05,5.69-9.36,3l-1.38-.48,3-.45c1-.13,1.92-.24,2.87-.38,10.11-1.45,17.74-8.4,26.43-13.23l-1.88-1.08c.4,3-10.3,4.64-12.23,4.83a45.59,45.59,0,0,1-11.07-.41v2.41a69.77,69.77,0,0,1,17.94-4.89l-.63-2.33c-4.83,3.15-10,7.25-16.07,6.21-3.84-.66-7.31-2.22-11.26-2.31-1.51,0-1.57,2-.34,2.45a30,30,0,0,0,8.69,2.25V677a51.18,51.18,0,0,1-12.12.07v2.5a53.26,53.26,0,0,1,16.5,1.2l-.3-2.29c-4.89,2.43-10.09,2.37-15.4,2.19v2.5c15.11-.43,29.87-5.07,40.25-16.51,1.07-1.19-.69-3-1.77-1.76Z"/><path d="M704.19,615.68a47.35,47.35,0,0,0,8.58,11.13l1.51-2c-3.92-2.61-5.8-6.53-10.82-7a1.25,1.25,0,0,0-1.2.92c-1.22,8.87-8.75,13.42-15.93,17.41l1.71,1.71c1.23-2.55,3.88-3.77,6-5.54a33.45,33.45,0,0,0,5.23-5.79L696.9,626c0,2.54-5.93,7.44.37,7.49,5.9,0,8.47-4,10.21-9,.38-1.11-.93-1.85-1.84-1.41l-3.48,1.68,1.71,1.71,2.11-2-1.71-1.71c-1.64,2.36-3.16,5.55-.88,8.08,2.53,2.82,9.31,3.12,12.82,3.17l-.63-2.32c-6.54,3.94-7.92-7.3-13.13-5.12-4,1.67-6.64,8.81-7.66,12.56a1.26,1.26,0,0,0,2.09,1.21l7.57-8.59c1.06-1.2-.68-3-1.77-1.77-3,3.35-6,6.42-10.67,7.16l1.22,2.09c2.82-3.28,5.91-6.32,7.37-10.47a1.25,1.25,0,0,0-1.53-1.54c-2,.56-4,1.2-6,1.94l1.41,1.84a13,13,0,0,1,6.47-6.89l-1.71-1.71c-5.86,10.9-17.67,15.85-26.89,23.36-1.1.89.34,2.77,1.51,2l11.91-8.21c1.31-.9.06-3.07-1.27-2.15l-11.9,8.2,1.52,2c9.43-7.7,21.27-12.7,27.28-23.87a1.26,1.26,0,0,0-1.71-1.71,14.84,14.84,0,0,0-7.37,7.79c-.38.87.27,2.26,1.41,1.83,2-.74,3.94-1.38,6-1.94l-1.54-1.54c-1.29,3.67-4.24,6.48-6.73,9.37a1.26,1.26,0,0,0,1.22,2.09c5-.8,8.46-4.14,11.77-7.8l-1.77-1.77-7.57,8.6,2.09,1.21c.82-3,2.17-6.87,4.58-9,3-2.68,4,.21,6.47,2.13,2.66,2.08,5.63,2.75,8.59,1a1.26,1.26,0,0,0-.63-2.33c-3.42-.05-14.36-.88-9.78-7.49.76-1.1-.69-2.22-1.71-1.71a6.2,6.2,0,0,0-3,2.89,1.26,1.26,0,0,0,1.71,1.71l3.47-1.68-1.83-1.41c-.78,2.26-1.66,5-3.88,6.29-1.5.89-3.47,1.39-3.27-.17.18-1.39,1.51-2.15,1.48-3.94a1.26,1.26,0,0,0-2.33-.63c-2.33,3.17-5,5.28-8.06,7.71a10.1,10.1,0,0,0-3.13,3.62,1.26,1.26,0,0,0,1.71,1.71c4.82-2.68,9.81-5.48,13.27-9.91a19.31,19.31,0,0,0,2.5-4.1c.17-.37.89-3.21,1.09-3.32,1.82-1,7,4.91,8.57,6,1.19.8,2.53-1,1.52-2a45.19,45.19,0,0,1-8.19-10.62c-.78-1.41-2.94-.15-2.16,1.26Z"/><path d="M686.25,636.48l-.08-.14a.9.9,0,0,0-.32-.35.94.94,0,0,0-.43-.23.91.91,0,0,0-.49,0,1,1,0,0,0-.47.15l-.25.2a1.18,1.18,0,0,0-.32.55l0,.33a1.27,1.27,0,0,0,.17.63l.08.14a.93.93,0,0,0,.33.35,1,1,0,0,0,.42.23,1.06,1.06,0,0,0,.5,0,.93.93,0,0,0,.46-.15l.26-.2a1.27,1.27,0,0,0,.32-.55l0-.33a1.15,1.15,0,0,0-.17-.63Z"/><path d="M651.79,573.13a1.25,1.25,0,0,0,0-2.5,1.25,1.25,0,0,0,0,2.5Z"/><path d="M622.44,587.63l.09.15a.89.89,0,0,0,.32.35,1.11,1.11,0,0,0,.92.24.82.82,0,0,0,.47-.15l.25-.19a1.33,1.33,0,0,0,.32-.55l0-.33a1.2,1.2,0,0,0-.17-.64l-.08-.14a1,1,0,0,0-.32-.35,1.11,1.11,0,0,0-.92-.24.89.89,0,0,0-.47.14l-.25.2a1.23,1.23,0,0,0-.32.55l-.05.33a1.24,1.24,0,0,0,.17.63Z"/><path d="M726.1,650.62a11.83,11.83,0,0,0,.36-12.79,1.29,1.29,0,0,0-1.71-.45c-3.55,1.51-8.8,3.85-12.74,2.82-3.62-1-6.75-4.71-9.31-7.3-1.14-1.15-2.84.58-1.76,1.77a12.16,12.16,0,0,0,3.37,2.65c1.42.77,2.68-1.38,1.27-2.16a7,7,0,0,1-2.88-2.26l-1.76,1.77c3.23,3.27,7,7.66,11.9,8.17,4.44.47,9.18-1.6,13.17-3.3l-1.71-.44a9.41,9.41,0,0,1-.36,10.26c-.88,1.35,1.28,2.6,2.16,1.26Z"/><path d="M715.22,643a10.86,10.86,0,0,1-1.83,7.32c-.76,1.17,1.07,2.64,2,1.52a15.36,15.36,0,0,0,1.79-2.76q.32-.74.6-1.47.81-5,6.78-2.51a1.25,1.25,0,0,0,2.41-.67,6.91,6.91,0,0,0-5.59-5.62c-2-.3-3.38.59-5.26.94-3.47.66-8-.92-11.42-1.87a1.26,1.26,0,0,0-.67,2.42c9,2.95-.21,9.51-3.75,12.12a31.71,31.71,0,0,1-11.4,5.6l1.22,2.09c7.29-6.13,9.1-15.59,4.85-24.07l-1.41,1.84a15.81,15.81,0,0,1,11.93,8.9l2.16-1.27A76.64,76.64,0,0,0,702,636c-.63-.92-2.47-.72-2.33.63a46.06,46.06,0,0,0,1.45,7.06c.86,3.41-.52,5.8-2.49,8.5l2.16,1.27a11.79,11.79,0,0,0-1.25-14.21,1.27,1.27,0,0,0-2.09.55,12.15,12.15,0,0,0-.5,5.64,17.07,17.07,0,0,1-1.8,9.36c-.72,1.43,1.44,2.7,2.16,1.26a19.53,19.53,0,0,0,2.13-6.48c.38-3.07-.69-6.14.42-9.11l-2.09.55a9.29,9.29,0,0,1,.86,11.17c-.84,1.42,1.23,2.54,2.16,1.27,1.45-2,3.49-3.85,3.67-6.45.24-3.31-2-7-2.29-10.38l-2.33.63a76,76,0,0,1,5.61,9.55c.72,1.44,2.87.17,2.16-1.27a18,18,0,0,0-13.42-10,1.26,1.26,0,0,0-1.41,1.83c3.76,7.54,1.93,15.67-4.47,21-1,.84.09,2.36,1.22,2.08,7.57-1.82,32.39-16.88,15.15-22.55l-.67,2.42a48.32,48.32,0,0,0,10.28,2.14c3.74.18,9-3.25,10.25,2.66l2.41-.67c-.8-2.47-2.83-4.42-5.6-4.16-5,.48-5.3,6.7-7.75,9.8l2,1.51a12.91,12.91,0,0,0,2.17-8.58c-.14-1.59-2.64-1.6-2.5,0Z"/><path d="M694.36,644.05c-2.24,2.17-4.52,4.34-7.54,5.33a28.72,28.72,0,0,0-5.54,2c-3,1.66-5.09,2.93-8.43,3.65l-10.68,2.28a1.26,1.26,0,0,0-.56,2.09A62.45,62.45,0,0,0,681,671.2c1.5.57,2.15-1.84.66-2.41a59,59,0,0,1-18.27-11.11l-.55,2.09c6.26-1.34,13.28-1.87,18.74-5.37,2.76-1.77,5.35-2.12,8.17-3.54a26.82,26.82,0,0,0,6.39-5c1.16-1.12-.61-2.89-1.77-1.77Z"/><path d="M696.07,667.19c-7.17-.29-13.27-.18-19.63-3.94-4.07-2.4-7.71-7.48-12.52-8.17a1.26,1.26,0,0,0-1.53,1.54c1.78,6.3,5.88,11,10.25,15.76l1.21-2.09c-6.76-1.44-11.72-8.77-17.64-12.26v2.16c2.2-1.25,5.61-.27,8.13-1.53,3.25-1.63,5.72-4.48,9-6.19,7.3-3.87,14.43-7.83,21.48-12.18a1.26,1.26,0,0,0-.64-2.33c-6.08-.59-10,3.65-14.55,7a1.25,1.25,0,0,0,1.26,2.16c2.65-1.26,7.91-4.44,11-4,1.9.26,0,.75-1,1.28a56,56,0,0,1-5.41,2.46c-6.65,2.79-13.33,5.53-20,8.3l1.21,2.09a84.38,84.38,0,0,0,10.82-10.73c.71-.84.06-2.6-1.22-2.09a81.82,81.82,0,0,0-13.24,6.7l1.71,1.71a30.33,30.33,0,0,1,3.7-4.27c1.16-1.12-.61-2.89-1.77-1.76a34.44,34.44,0,0,0-4.09,4.77c-.74,1,.7,2.35,1.71,1.71A78.84,78.84,0,0,1,677,646.77l-1.22-2.09a84.94,84.94,0,0,1-10.81,10.73c-.93.77.07,2.57,1.21,2.09l19.13-7.94c3.07-1.28,9.34-2.88,10.93-6.08.88-1.77-.26-3.12-2.08-3.34-4.42-.55-10.62,2.93-14.52,4.78l1.26,2.16c4.12-3,7.73-7.16,13.29-6.62l-.63-2.33c-6.79,4.2-13.61,8.24-20.75,11.82-3.22,1.62-5.4,3.85-8.37,5.76-3.25,2.09-6.47.62-9.45,2.32a1.26,1.26,0,0,0,0,2.16c6.2,3.65,11,11,18.24,12.52a1.26,1.26,0,0,0,1.21-2.09c-4.06-4.39-7.94-8.8-9.6-14.67l-1.54,1.54c3.22.46,5,3.13,7.44,5a43.1,43.1,0,0,0,8.65,5.18c5.14,2.31,11.2,1.8,16.72,2,1.6.06,1.6-2.44,0-2.5Z"/><path d="M684.34,632.06q-15.89,11-32.75,20.32a1.26,1.26,0,0,0,0,2.16c4.62,2.7,9.62,4,14,.23a1.26,1.26,0,0,0-.56-2.09c-3.86-1.3-7.89.67-11.66-.81-1.19-.47-2.07,1.27-1.22,2.09,4.1,3.93-1.58,0-2.47-.69a17.85,17.85,0,0,0-2.89-1.87,1.25,1.25,0,0,0-1.26,2.15,36.22,36.22,0,0,0,5.62,3.51c1.19.6,2.64-1,1.51-2L643.27,647l-1.52,2,6.83,4.21,1-2.28a7.63,7.63,0,0,1-5.11-2.4,20.42,20.42,0,0,1-2.77-3.53c1.38.77,2.48,2.91,3.26,4.26a1.25,1.25,0,0,0,2.16-1.26c-1.06-1.82-6.62-9.56-8.69-4.95-.8,1.81,2,4.65,3,5.81a11.85,11.85,0,0,0,7.5,4.48,1.25,1.25,0,0,0,1-2.28L643,646.77c-1.19-.73-2.61,1-1.52,2l9.39,8.13,1.52-2a37.43,37.43,0,0,1-5.62-3.5l-1.26,2.15c3,1.51,6.79,6.57,10.58,4.24a1.29,1.29,0,0,0,.57-1.41c-.27-1.69-1.57-3-2.76-4.19l-1.21,2.09c3.86,1.52,7.78-.49,11.66.81l-.55-2.09c-3.61,3.1-7.52,1.4-11-.62v2.16q16.86-9.36,32.75-20.32c1.32-.91.07-3.08-1.26-2.16Z"/><path d="M624.76,614.09c.11,1.25-1,2.54-1.45,3.68a31.18,31.18,0,0,0-1.78,7.21c-.35,4.63,2.57,9.4,4.56,13.39,3.19,6.41,9.62,19.59,18.74,16.56a1.25,1.25,0,0,0-.33-2.45c-3.79-.42-7.57-.73-11.38-.94l.63,2.33a13.17,13.17,0,0,1,6.28-2.42,1.27,1.27,0,0,0,1.08-1.88c-1.39-3-5.44-4.15-8.15-5.51a96.56,96.56,0,0,0-12.44-5.29,1.26,1.26,0,0,0-1.41,1.83,10.79,10.79,0,0,0,5.68,4.8l.33-2.46c-4-.17-6.46-2-6.33-6.08.05-1.47.5-2.92.56-4.41l-2.45.34c.82,4.09,2.39,8,7.12,8,1.52,0,1.55-1.94.33-2.45-2.12-.89-4.11-1.64-5.13-3.79-.93-2-.47-1.93-.13-3.95l-2.09.55c1.79,2.3,1.59,5.32,3.71,7.38s5.81,3.07,8.52,4.24c4.84,2.1,9.13,5.23,13.08.31.58-.72.32-2.28-.88-2.13-5.61.68-10.1-10.49-11.89-14.48s-5-6.77-6.52-10.71c-.57-1.48-3-.84-2.41.67,1.16,3,3.14,5,4.86,7.67,2,3,2.91,6.46,4.87,9.5,2.76,4.27,4.95,10.59,11.09,9.85l-.89-2.14c-2.81,3.5-12.54-1.23-15.94-3.26-3.68-2.19-3.5-5.67-5.83-8.67a1.26,1.26,0,0,0-2.09.55c-.35,2.08-1.54,3.85-.55,5.9,1.22,2.52,5.16,3.91,7.56,4.92l.33-2.46q-4.35-2-4.71-6.16c-.29-1.43-2.4-1-2.46.33-.12,3.14-1.61,6.29.28,9.16,1.77,2.7,4.92,3.7,8,3.83,1.52.07,1.55-2,.33-2.45a7,7,0,0,1-4.18-3.65l-1.41,1.84a88.28,88.28,0,0,1,10.26,4.25c2.43,1.19,7.64,2.86,8.83,5.4L640,649a15.48,15.48,0,0,0-7.54,2.77,1.26,1.26,0,0,0,.63,2.32c3.81.21,7.59.52,11.38.94l-.33-2.46c-8.53,2.83-15.43-14-18.14-20-.9-2-2.12-4.48-2.06-6.76,0-1.49,1.31-4.11,1.72-5.79.46-1.9,1.74-3.87,1.57-5.84-.13-1.59-2.63-1.6-2.5,0Z"/><path d="M624.35,607.24c0-2.29-1.73-4.21-4.13-3.07-3,1.4-3.26,7.59-3.91,10.2a1.25,1.25,0,0,0,2.41.66,103.82,103.82,0,0,0,3.92-11.67,1.26,1.26,0,0,0-2.29-1c-1.41,2.62-3.18,5.26-4.34,8-1,2.28-.89,1.92,1,2.06,1.4.11,3.56-.53,4.95-.74l-1.41-1.83a22.53,22.53,0,0,1-7.8,6.72c-1.42.76-.16,2.92,1.26,2.16,2.39-1.26,4-3.28,6.25-4.74,2.07-1.36,4-1.37,5.45-3.45l-2.29-.3c.82,5.82-5.13,10.21-6.23,15.71a1.25,1.25,0,0,0,2.41.66,14.91,14.91,0,0,0,0-11.91c-.61-1.44-2.82-1-2.41.66,1.7,6.77,5.7,12.62,7.39,19.38l1.54-1.54a12.55,12.55,0,0,1-5-3.24l-1.77,1.77c2.88,2.83,5.63,5.77,8.28,8.83,1,1.17,2.47-.32,2-1.52q-2.09-4.87-4.24-9.73l-1.71,1.71c3.35,2.55,5.36,6,7.35,9.65l2-1.51a71,71,0,0,1-7.8-12.25l-2.16,1.27a41,41,0,0,1,5,8.67l2.16-1.26a127.08,127.08,0,0,0-6.85-13,1.26,1.26,0,0,0-2.33.63,29.43,29.43,0,0,1-1.2,7.47l2.09-.55c-1.91-1.71,2.75-5.46,3.37-7a48.37,48.37,0,0,0,1.06-7.06v-1.77c-5.52,5.94-1.1,12.8,1.83,18.78,2.52,5.13,5.69,13.28,12.91,9.75,1.25-.61.45-2.19-.63-2.33-5.56-.73-7.72-3.42-10.44-7.84a55.1,55.1,0,0,1-5.46-10.81c-2.3-6.84-1.46-14.22-4.2-21l-2.09,1.22,1.56,1.52c1.15,1.13,2.92-.64,1.76-1.77l-1.55-1.52c-.83-.81-2.59,0-2.09,1.21,1.9,4.69,2.09,9.58,2.78,14.53a38.69,38.69,0,0,0,4.22,12.72,50.34,50.34,0,0,0,6.45,10.2c2.64,3,5.26,3.5,9.06,4l-.63-2.33c-5.83,2.85-8.64-7.26-10.24-10.31-2.29-4.36-5.63-9.82-1.47-14.29a1.27,1.27,0,0,0,0-1.77c-3.32-3.12-4.48,1.9-4.91,4.19a7.16,7.16,0,0,1-1.43,5.31,22.53,22.53,0,0,0-1.8,1.86,6.64,6.64,0,0,0-.85,1.46,4,4,0,0,0,1,4.77,1.26,1.26,0,0,0,2.09-.55,31.94,31.94,0,0,0,1.29-8.13l-2.33.63a127.08,127.08,0,0,1,6.85,13c.69,1.47,2.78.19,2.16-1.26a41.36,41.36,0,0,0-5-8.68,1.25,1.25,0,0,0-2.16,1.27A74.7,74.7,0,0,0,631.07,641c.91,1.15,2.62-.31,2-1.51-2.24-4.08-4.52-7.71-8.25-10.55-1.12-.86-2.14.73-1.71,1.71q2.16,4.86,4.24,9.74l2-1.52c-2.64-3.06-5.39-6-8.27-8.83a1.25,1.25,0,0,0-1.77,1.77,15.38,15.38,0,0,0,6.14,3.88,1.27,1.27,0,0,0,1.54-1.54c-1.7-6.76-5.7-12.61-7.4-19.37l-2.41.66a12.83,12.83,0,0,1,0,10.59l2.41.66c1.27-6.32,7.2-10.14,6.24-17-.17-1.16-1.76-1.09-2.29-.3-.8,1.19-3.72,1.91-5,2.78-2,1.43-3.61,3.33-5.84,4.51l1.26,2.16a25.2,25.2,0,0,0,8.7-7.62c.72-1-.47-2-1.41-1.84s-12.36,1-8.26,4.67c3.85,3.47,8.76-8.92,9.51-10.31l-2.28-1a104.51,104.51,0,0,1-3.92,11.67l2.41.66,1-4.19.41-1.68a2,2,0,0,1,1.67-1.92,1.25,1.25,0,0,0,2.5,0Z"/><path d="M652.24,650.92a28.39,28.39,0,0,1-6.76-.5,21,21,0,0,0-5.16-.82,1.26,1.26,0,0,0-.33,2.46,68.44,68.44,0,0,0,8.11,1.85c1.58.26,2.25-2.15.67-2.41a68.16,68.16,0,0,1-8.12-1.85l-.33,2.45c2.14-.05,4.1.74,6.18,1.07a34.43,34.43,0,0,0,5.74.25,1.25,1.25,0,0,0,0-2.5Z"/><path d="M718.75,565.73A20.92,20.92,0,0,0,707.42,574l9.31,2.52,0-.51c-.07.39-.07.41,0,.06.28-.76-.52.79.28-.42l-8.64-5-.47.73a5,5,0,1,0,8.63,5l.48-.74a5,5,0,1,0-8.64-5,10.14,10.14,0,0,0-1.64,5.91,5.1,5.1,0,0,0,3.67,4.82,5.26,5.26,0,0,0,5.65-2.29c.1-.14.5-.63.17-.24a10.44,10.44,0,0,1,.71-.77c.24-.25.5-.49.76-.72l.4-.35q-.39.3,0,0a18.15,18.15,0,0,1,1.8-1.07c.75-.39-.54.19.24-.12.41-.16.83-.29,1.25-.41a5,5,0,1,0-2.66-9.64Z"/><path d="M707.14,574.85a25.82,25.82,0,0,1-5.27,7.33l7.85,6.06,1.93-4.28c1.15-2.55.54-6.87-3-7.35a8,8,0,0,0-4.1.14c-.87.3-2.79,1.08-2,1.5-4.11-2.18-9.86,2.48-6.84,6.84a6.76,6.76,0,0,1,1.43,4.8,5,5,0,0,0,6.33,4.82,16.29,16.29,0,0,1,11.32.49v-9.64c-5.51,1.09-10.3,3.51-11.85,9.3l9.82,1.33c.31-2.85,7.56.43,8.39.8,3,1.36,6.26.32,7.34-3,.2-.59,2.42-1.65,3-2.15A9.5,9.5,0,0,0,734,588a8.87,8.87,0,0,0-2.79-9.39c-6.31-5.45-14-.41-16.33,6.22-2,5.75,6,8.07,9.14,3.86,4.31-5.85,9.9-18.86-.14-22l-1.33,9.82c1.79.14,5.12-.23,6.64.87l-2.47-4.32.08,1,3.67-4.82a7.4,7.4,0,0,0-4.15,2.13c-.58.55-1.89,2.8-2.18,2.9-6.1,2-3.49,11.62,2.66,9.64a9.57,9.57,0,0,0,4.13-2.44c.59-.59,1.64-2.51,2.2-2.59,2-.28,3.84-2.86,3.67-4.82-.67-7.58-8.34-7-14.25-7.5s-6.53,8.21-1.33,9.82c-1.51-1.44-2.3-1.26-2.39.55-.24.74-.51,1.47-.81,2.18a21.91,21.91,0,0,1-2.63,4.55l9.14,3.85c1.17-3.28-.84-2.6-2.79-.81a10.39,10.39,0,0,0-2.91,4.63l7.35-3c-5-2.23-10.23-4.32-15.64-2.43-4.7,1.64-7.28,5.48-7.8,10.27-.62,5.69,8.39,6.65,9.82,1.33.52-1.94,3.3-2,4.87-2.32,5.31-1,4.16-8.06,0-9.64a25.39,25.39,0,0,0-16.64-.49l6.33,4.82a15.43,15.43,0,0,0-2.79-9.85l-6.85,6.84c4.5,2.38,7.45,1.11,11.5-1.24l-3.85.5.85.12-3-7.35-1.93,4.29c-2.22,4.93,3.54,10.28,7.85,6.06a34.49,34.49,0,0,0,6.84-9.37c2.84-5.75-5.78-10.82-8.64-5Z"/><path d="M658.71,557.39a55,55,0,0,1-10.24,2c-5.16.47-7.31,8.8-1.33,9.82,2.53.44,6.64.57,8.77,2l-2.29-3q.54-2-.54-.84l-1.58,1.22c-1.11.92-2.11,1.94-3.17,2.92a59.39,59.39,0,0,1-9.13,6.89l6.84,6.84a3.69,3.69,0,0,1,1.28-1.78l-7.85-6.06c-.52,1.2-3.54,2.25-4.51,3-2.07,1.63-3.55,3.14-6.14,3.9-4.36,1.29-5.14,8.85,0,9.65a16.09,16.09,0,0,0,5.87,0L632,584.29a9.45,9.45,0,0,0-6.79,5c-1.44,2.57-.3,6.78,3,7.34a7.3,7.3,0,0,0,5.81-.87L627.2,589l-.59.67,7.07,7.07c5.46-5.84,13.5-9.84,20.14-14.21l-5.05-8.64-4.09,3a5,5,0,0,0,3.86,9.14c8.11-1.42,13.86-8.19,21.88-10.15,6.25-1.52,3.6-11.17-2.66-9.64A39.18,39.18,0,0,0,657,570.66c-3.66,2.17-6.8,4.89-11.09,5.64l3.85,9.14,4.09-3c5.11-3.71.41-12.23-5.05-8.64-7.38,4.87-16.08,9.27-22.16,15.78-4.42,4.72,2.3,11.38,7.07,7.07a10.41,10.41,0,0,0,2.15-2.7c2.5-4.27-2.53-9.44-6.84-6.84l-.91.55,3.85-.5-1-.18,3,7.34.82-.43c6.33-1.19,3.63-10.77-2.66-9.64l-.55,0V594c3.91-1.16,6.38-3.29,9.59-5.62,2.63-1.91,5.63-2.65,7-5.89,2.12-4.92-3.51-10.35-7.86-6.06a14.74,14.74,0,0,0-2.84,3.81c-2.21,4.24,2.38,9.61,6.84,6.84a75.21,75.21,0,0,0,11.15-8.46c2.43-2.23,6-4.23,7.51-7.18,4.65-9-7.29-10.87-13.11-11.87l-1.33,9.82a68.87,68.87,0,0,0,12.9-2.33c6.18-1.76,3.55-11.41-2.66-9.64Z"/><path d="M692.48,627.71a30.92,30.92,0,0,1-3.05,5.26l9.13,1.2.15.83-7.85-6.06c-2.65,3.7-6,8.23-10.18,10.29-3.86,1.89-8.06,2.88-11.89,4.94s-8.75,6.38-13.38,6.36c-4.25,0-6.89-4.8-8.87-7.92-3.44-5.41-12.1-.4-8.63,5,3,4.71,6.42,9.6,11.8,11.74,6.22,2.48,12.26.15,17.77-2.94,3.19-1.78,6.26-3.82,9.61-5.31,2.81-1.25,5.9-1.85,8.63-3.28,5.76-3,10.07-8.71,13.77-13.88,3.43-4.8-3.85-9.74-7.85-6.06-2.72,2.49-3.24,5.37-2.72,8.89.7,4.73,7,4.25,9.14,1.2a30.65,30.65,0,0,0,3.05-5.26c2.65-5.81-6-10.9-8.63-5Z"/><path d="M693.18,645.41c3,3.59,7.23,4.6,11.66,3.65,3-.66,4.75-4.76,3-7.35l-3.69-5.41-7.85,6.05s-1.88,2.46-2.48,3.1l7.08,7.07c6.09-7.58-1.77-15.08-10-12.91-9.89,2.59-19.08,5.45-28,10.75-5.52,3.3-.5,11.95,5,8.64a79.89,79.89,0,0,1,13.5-6.59,49.35,49.35,0,0,1,6.68-1.54,15.57,15.57,0,0,0,3.23-.87q3.2-.51,2.49-4.55c-3.94,4.9,2.58,11.87,7.08,7.07,4.79-5.13,7.38-11.24,2.47-17.24-3.57-4.37-11,1.38-7.85,6.06l3.69,5.42,3-7.35a1.54,1.54,0,0,1-1.93-1.07c-4.1-5-11.14,2.14-7.07,7.07Z"/><path d="M695,652.21,692.58,654c-1.5,1.12-.2,3.59,1.51,2.59l5.32-3.12c1.36-.8,3.14-1.53,4-2.91s.55-3.26.08-4.79c-.51-1.72-1.22-3.36-1.88-5-1.35-3.39-2.35-6.76-1.51-10.42s2.76-6.81,4.64-9.94c.85-1.39-.77-2.62-2-2a9.35,9.35,0,0,0-3.81,3.21,1.52,1.52,0,0,0,1.69,2.21c3.94-1.59,6.28-5.17,7.33-9.17,1.3-5,.41-10.21,1.39-15.23l-2.95-.4a133.43,133.43,0,0,1-2.59,18.77,85.77,85.77,0,0,1-2.08,8.36c-.71,2.26-1.73,4.55-3.84,5.8l2,.54c-.79-1.72-1.17-3.65-2.55-5a4.58,4.58,0,0,0-4.67-1.31c-1.82.61-1,3.5.8,2.89,2.31-.78,3.18,3.56,3.83,5a1.52,1.52,0,0,0,2.05.54c5-3,6-9.84,7.1-15a139.06,139.06,0,0,0,2.9-20.52c.11-1.67-2.62-2.06-3-.4-.89,4.58-.25,9.27-1.08,13.83-.6,3.32-2.17,7.12-5.53,8.48l1.69,2.2a6.41,6.41,0,0,1,2.74-2.14l-2.06-2.05a42.56,42.56,0,0,0-4.61,9.41,17.13,17.13,0,0,0,0,10.05c.49,1.64,1.17,3.22,1.8,4.81A20,20,0,0,1,701,648c.1,1-.28,1.26-1,1.72s-1.5.89-2.25,1.32l-5.11,3,1.51,2.59,2.41-1.82c1.52-1.15,0-3.75-1.51-2.59Z"/><path d="M666.55,577.65l-5,.21a1.5,1.5,0,0,0,0,3,29.54,29.54,0,0,0,8.29-.37l-.8-2.89a61.73,61.73,0,0,1-10.25.94,1.51,1.51,0,0,0-.4,3,13.57,13.57,0,0,0,8.22-.15,15.28,15.28,0,0,0,3.63-2.3,6.4,6.4,0,0,1,3.75-1.3,1.51,1.51,0,0,0,.4-3c-1.86-.57-3.64.07-5.35.8l-5.23,2.28a1.51,1.51,0,0,0,0,2.59,7.76,7.76,0,0,0,3.66.68l4.09.2c1.67.08,2.07-2.62.4-3l-6.77-1.31a1.55,1.55,0,0,0-1.85,1,1.52,1.52,0,0,0,1,1.85l6.77,1.31.4-2.95-3.48-.17a6.65,6.65,0,0,1-2.75-.3v2.59l4.43-1.93c1.18-.52,2.53-1.25,3.83-.85l.4-2.94a9.56,9.56,0,0,0-4.25,1.07c-1.24.65-2.18,1.73-3.41,2.39-2.17,1.16-4.83,1-7.14.4l-.4,2.94a66,66,0,0,0,11.05-1,1.5,1.5,0,1,0-.8-2.89,26.85,26.85,0,0,1-7.49.26v3l5-.21c1.92-.08,1.93-3.08,0-3Z"/><path d="M616.35,577.52a45.79,45.79,0,0,0-.11,13.63l2.51-1.46c-2.1-2.46-1.41-6.39-1.1-9.33a99.51,99.51,0,0,1,2-12.14c.35-1.55,1.25-3.54.08-4.94-1-1.24-2.73-.93-4-.37a13,13,0,0,0-6.63,6.66,1.53,1.53,0,0,0,.9,2.2,6.67,6.67,0,0,0,6.4-1.82c1.84-1.78,2.62-4.35,3.17-6.77,1.37-6.07,2.63-12.18,3.95-18.26a1.51,1.51,0,0,0-2.51-1.46,31.83,31.83,0,0,0-8.26,10.65c-.83,1.72,1.6,3.2,2.59,1.51a77.85,77.85,0,0,0,5.42-11.27c.6-1.57-2.07-2.72-2.74-1.16a26.77,26.77,0,0,1-3.83,6.37l2.51,1.46a22.63,22.63,0,0,1,3.78-7.23L618,542.33a19.56,19.56,0,0,1-3.51,7.18l2.59,1.51,6-10.29-2.8-.75a6,6,0,0,1-1.19,2.87l2.5,1.46,3.23-9c.66-1.85-2.18-2.54-2.89-.8a40.24,40.24,0,0,1-5.35,9.25l2.56,1.06c.25-2.56,2-4.68,3.45-6.7s3.21-4.57,2.89-7.09a3.27,3.27,0,0,0-5.34-2c-2.1,1.69-1.19,5,1.06,6.07,1.45.69,3.15-1.13,1.82-2.35l-1.37-1.26c-.3-.28-.67-.8-1-.95q-.45-.72-.63.21l.2-.12a5.88,5.88,0,0,0,1.63-.57l6.12-2.06,12.71-4.3c1.54-.52,1.37-3-.39-3a37,37,0,0,0-11.28,2.07c-1.81.64-1,3.53.79,2.9a36.29,36.29,0,0,1,9.38-2l-.4-2.95-14.48,5.87c-1.74.71-1.13,3.37.8,2.89l15.43-3.84L639,523.25a29.64,29.64,0,0,1-9.87,7.62c-1.76.84-.23,3.35,1.51,2.59l8.84-3.91-2.06-2c-2.73,6.11-9.36,9.24-12.35,15.21-.86,1.71,1.64,3.21,2.59,1.51l4.9-8.79-2.74-1.16a23.81,23.81,0,0,1-4.42,9.47l2.74,1.16a50.39,50.39,0,0,1,3.84-7.31l-2.75-1.16a15.79,15.79,0,0,1-1.14,3.69,1.51,1.51,0,0,0,2.36,1.81,5.59,5.59,0,0,0,1.66-2.37c.57-1.41-1.55-2.51-2.51-1.46-2.63,2.87-5.27,5.76-7.69,8.8a8.15,8.15,0,0,0-1.85,4.74,12,12,0,0,1-1.52,4.74c-1.54,2.84-3.6,5.42-4.39,8.61-.74,3-.45,6.13,1.76,8.38a1.51,1.51,0,0,0,2.5-.66,67.47,67.47,0,0,1,8.18-20.32l-2.74-.36c1.32,7.49-3.24,14.63-4.51,21.83l2.95.4A21.33,21.33,0,0,1,625,563.8l-2.79-.76c1,9.41-2.73,19.28,1.68,28.2l2.59-1.51a21.81,21.81,0,0,1-3.6-14c.14-1.71-2.51-2-2.95-.4a30.55,30.55,0,0,0-.28,14.93l2.89-.8-1.8-5.91a1.51,1.51,0,0,0-2.89,0,44.19,44.19,0,0,0-1.3,15.57,1.5,1.5,0,0,0,3,0,22.85,22.85,0,0,1,1.29-7H618a48.28,48.28,0,0,1,.59,11.2,1.52,1.52,0,0,0,2.8.76l3.48-6.12-2.74-.36a18.56,18.56,0,0,1-.83,9.11l2.89.8c.64-2.89,1.3-6,.38-8.91a7.75,7.75,0,0,0-4.74-5.14,1.51,1.51,0,0,0-1.7,2.2,22.13,22.13,0,0,1,4.08,10.18c.16,1.3,2.07,2.26,2.79.76l3.68-7.68-2.59-1.52a68.82,68.82,0,0,0-6.22,24.68h3l-1.63-18.5a1.52,1.52,0,0,0-2.8-.76,15.39,15.39,0,0,0-2,6.25l2.94-.4a3.72,3.72,0,0,1,.39-2.45L617,605.12a45.23,45.23,0,0,1-6.76,14.06c-1,1.46,1.14,2.88,2.35,1.82,1.44-1.26,3.07-2.78,5-3.1,1.38-.24,3.15.26,3.59,1.73a1.51,1.51,0,0,0,2.95-.4,11.53,11.53,0,0,1,1.64-5.17,6.76,6.76,0,0,0,.46-.72,1.86,1.86,0,0,1,.21-.28c.31-.3.07-.55-.75-.74L628,611a2.3,2.3,0,0,1-.85-1.23c-.58-1.84-3.48-1-2.89.79a5.73,5.73,0,0,0,2.22,3c1,.72,2.21-.26,2.26-1.29a2.28,2.28,0,0,0-2.14-2.36,3.12,3.12,0,0,0-2.69,1.56,15.06,15.06,0,0,0-2.73,7.71l2.94-.4a5.91,5.91,0,0,0-5.91-4c-3.06.06-5.54,2.13-7.72,4l2.36,1.82a48.1,48.1,0,0,0,7.07-14.78c.45-1.61-1.95-2.7-2.74-1.16a7.17,7.17,0,0,0-.69,4.77c.33,1.79,2.78,1.15,2.95-.4a11.93,11.93,0,0,1,1.58-4.74l-2.79-.75,1.63,18.5a1.5,1.5,0,0,0,3,0A64.78,64.78,0,0,1,628.66,599c.8-1.74-1.76-3.27-2.59-1.52l-3.68,7.68,2.8.76a25.23,25.23,0,0,0-4.49-11.7L619,596.41c4.11,1.48,3,7.2,2.27,10.36a1.5,1.5,0,0,0,2.89.8,21.72,21.72,0,0,0,.83-10.7c-.22-1.31-2.15-1.41-2.74-.36l-3.48,6.12,2.79.75a52.47,52.47,0,0,0-.69-12c-.28-1.57-2.46-1.26-2.9,0a25.85,25.85,0,0,0-1.39,7.79h3a41.79,41.79,0,0,1,1.19-14.77h-2.89l1.8,5.91a1.5,1.5,0,0,0,2.89-.8,27.22,27.22,0,0,1,.29-13.33l-3-.4a24.45,24.45,0,0,0,4,15.46,1.5,1.5,0,0,0,2.59-1.51c-2-4.05-2-8.62-1.7-13s.9-9.1.43-13.66c-.15-1.38-2-2.16-2.8-.75a24.52,24.52,0,0,0-3.18,12c0,1.64,2.64,2.11,2.94.4,1.39-7.88,6-15.2,4.51-23.43-.23-1.33-2.12-1.38-2.74-.36a70.23,70.23,0,0,0-8.48,21l2.51-.66c-1.84-1.88-1.38-4.79-.5-7,1.09-2.76,3.11-5.06,4.32-7.77a13.58,13.58,0,0,0,1.15-4.2,7.09,7.09,0,0,1,.4-2.24,8.11,8.11,0,0,1,1.28-1.79q3.44-4.08,7-8l-2.51-1.46a2.71,2.71,0,0,1-.88,1l2.35,1.82a18.92,18.92,0,0,0,1.45-4.4,1.5,1.5,0,0,0-2.74-1.15,55.29,55.29,0,0,0-4.14,8,1.48,1.48,0,0,0,.87,1.77,1.52,1.52,0,0,0,1.87-.61,25.77,25.77,0,0,0,4.72-10.19c.36-1.61-1.88-2.7-2.74-1.16l-4.9,8.8,2.59,1.51c3-6,9.61-9.06,12.35-15.2a1.52,1.52,0,0,0-2-2.06l-8.83,3.91,1.51,2.59a31.76,31.76,0,0,0,10.48-8.09,1.51,1.51,0,0,0-1.46-2.51l-15.43,3.85.8,2.89,14.48-5.87c1.42-.57,1.44-3.08-.4-2.94a39.7,39.7,0,0,0-10.17,2.06l.79,2.9a34.17,34.17,0,0,1,10.49-2l-.4-2.94-16.25,5.49c-1.33.45-2.68.86-4,1.35a3.64,3.64,0,0,0-2.22,1.69c-1.12,2.28,2.11,4.24,3.5,5.53l1.82-2.36c-.36-.17-1.08-.74-.66-1.19s.45.45.42.59a11.12,11.12,0,0,1-2.16,4.23c-1.87,2.72-3.84,5.26-4.17,8.66a1.51,1.51,0,0,0,2.56,1.06,45.15,45.15,0,0,0,6.12-10.57l-2.89-.8-3.23,9c-.49,1.35,1.59,2.64,2.51,1.46a9.82,9.82,0,0,0,2.07-5c.2-1.54-2.1-2-2.79-.76l-6,10.29c-1,1.72,1.45,3,2.59,1.51a21.66,21.66,0,0,0,3.81-7.89c.35-1.33-1.52-2.7-2.5-1.46a26.8,26.8,0,0,0-4.55,8.55c-.43,1.37,1.54,2.64,2.5,1.46a29.64,29.64,0,0,0,4.3-7l-2.75-1.16a72.36,72.36,0,0,1-5.11,10.56l2.59,1.51a30,30,0,0,1,7.79-10l-2.51-1.46-3.35,15.52c-.47,2.2-.78,4.62-1.86,6.63-.89,1.67-2.61,3.17-4.61,2.61l.89,2.2a10.66,10.66,0,0,1,2.29-3.41,9.11,9.11,0,0,1,1.61-1.29c.53-.34,1.3-.54,1.78-.91.3,0,.34-.08.11-.27s-.2-.26-.2.12a4.18,4.18,0,0,0-.29,1.17c-.2.85-.4,1.71-.58,2.57-.36,1.72-.69,3.45-1,5.19a73.33,73.33,0,0,0-1.11,9.9,11,11,0,0,0,2.28,7.67c1.09,1.28,2.69-.16,2.51-1.46a41.17,41.17,0,0,1,.1-12c.3-1.89-2.59-2.7-2.89-.8Z"/><path d="M631.77,587.05l-3.36-2.74a9.36,9.36,0,0,1-2.71-2.72c-.57-1.12-.85-2.37-1.43-3.5a12.36,12.36,0,0,0-2.4-3.21c-1.39-1.34-3.51.78-2.12,2.13a9.62,9.62,0,0,1,2.06,2.87c.56,1.17.83,2.45,1.49,3.57a11.58,11.58,0,0,0,2.89,2.91l3.46,2.81a1.53,1.53,0,0,0,2.12,0,1.5,1.5,0,0,0,0-2.12Z"/><path d="M630.68,550l1.67-13.7h-3a23.76,23.76,0,0,1-.51,6.24,1.5,1.5,0,0,0,2.89.8c.72-2.09,1.45-4.17,2.17-6.26.63-1.88.6-3.56-1.15-4.79a16.12,16.12,0,0,0-5.28-1.89,47.69,47.69,0,0,0-6.5-1.1l.39,3a68.73,68.73,0,0,0,19.21-10.56c1-.76.27-2.16-.66-2.51a3.64,3.64,0,0,0-4.19,1.73c-.86,1.28-.76,3.2-1.91,4.24a1.51,1.51,0,0,0,1.46,2.51l2.76-1c1.8-.65,1-3.55-.8-2.89l-2.76,1,1.46,2.5a6.09,6.09,0,0,0,1.65-3c.19-.63.56-2.59,1.53-2.23l-.66-2.51a64.35,64.35,0,0,1-17.88,9.79,1.5,1.5,0,0,0,.4,2.94,32.1,32.1,0,0,1,9.44,2.11c.43.19.86.36.91.83a7.39,7.39,0,0,1-.78,2.38l-1.7,4.92,2.89.8a26.85,26.85,0,0,0,.62-7,1.5,1.5,0,0,0-3,0L627.68,550c-.24,1.91,2.76,1.9,3,0Z"/><path d="M654,520.24c-2.86,1.78-5.78,3.46-8.78,5q-2.21,1.13-4.46,2.18a9.8,9.8,0,0,0-3.68,2.3,1.52,1.52,0,0,0,1.06,2.56c2.6.28,4.85-1.46,6.43-3.35,1.34-1.59,2.56-3.78,4.69-4.38l-1.16-2.74-8.89,4.61,2.06,2.05a10.64,10.64,0,0,1,4-3.37,35.38,35.38,0,0,0,4.88-3.11,1.51,1.51,0,0,0-1.06-2.56,33.56,33.56,0,0,0-9.42,2.19,1.51,1.51,0,0,0-1.07,1.64,1.48,1.48,0,0,0,1.47,1.3,51.48,51.48,0,0,0,9.38-1.73c1.31-.38,1.54-2.67,0-2.9a78.32,78.32,0,0,0-9.67-.8v3a63,63,0,0,0,10.56-1.91c1.15-.31,1.57-2.19.36-2.74a10.52,10.52,0,0,0-7.6-.52,1.5,1.5,0,0,0,.79,2.89,44.65,44.65,0,0,0,5.93-1.58c1.26-.44,1.58-2.64,0-2.9a9,9,0,0,0-6.28,1.18,1.51,1.51,0,0,0,.76,2.79,31.43,31.43,0,0,0,8.32-.74l-.8-2.89a4.5,4.5,0,0,0-2.84,2,1.5,1.5,0,0,0,1.29,2.25,25.79,25.79,0,0,1,2.78-.2,7.83,7.83,0,0,1,1.37.1,7.85,7.85,0,0,0,1.26.4c.19.13.18,0,0-.27,0-.35-.09-.43-.23-.24-.12,0-.34.3-.44.38a8.85,8.85,0,0,1-1.18.72,7.57,7.57,0,0,1-2.54.78,1.54,1.54,0,0,0-1.5,1.5,1.52,1.52,0,0,0,1.5,1.5,11.2,11.2,0,0,0,4.6-1.5c1.28-.77,2.81-1.92,2.66-3.58s-1.94-2.31-3.31-2.58a15.8,15.8,0,0,0-5,0l1.3,2.26a1.5,1.5,0,0,1,1.05-.67c1.88-.41,1.09-3.3-.8-2.89a28.38,28.38,0,0,1-7.52.63l.75,2.8a5.75,5.75,0,0,1,4-.87v-2.9a43.46,43.46,0,0,1-5.92,1.59l.79,2.89a7.37,7.37,0,0,1,5.29.22l.36-2.74a58.84,58.84,0,0,1-9.76,1.8,1.5,1.5,0,0,0,0,3,69.3,69.3,0,0,1,8.87.7v-2.9a47.24,47.24,0,0,1-8.58,1.63l.4,3a30.94,30.94,0,0,1,8.62-2.08L648,519.87c-3.09,2.52-7.14,3.53-9.35,7.09-.84,1.33.77,2.71,2.05,2l8.89-4.61c1.52-.78.46-3.2-1.16-2.74-2.22.63-3.75,2.28-5.13,4s-2.84,3.83-5.19,3.58l1.06,2.56c.89-1.05,2.34-1.49,3.56-2.06,1.44-.67,2.87-1.38,4.29-2.11q4.34-2.25,8.46-4.84c1.64-1,.13-3.62-1.51-2.59Z"/><path d="M796.3,613.78c.48-1.49,1.48-3.41,1.19-5a3.44,3.44,0,0,0-1-1.82c-.21-.21-.46-.38-.67-.59a1.37,1.37,0,0,1-.35-.37c-.08-.2-.14-.11-.16.26l-1.82.24a8.32,8.32,0,0,1,3.25,2.44v-2.12a10.84,10.84,0,0,0-2.58,5,10.32,10.32,0,0,1-2.95,5A39.66,39.66,0,0,0,787,621c-1.12,1.42-2.25,3.23-4,3.85a1.52,1.52,0,0,0,0,2.9,6.61,6.61,0,0,0,6.18-1.35c1.34-1.11-.38-3.17-1.82-2.36a22.38,22.38,0,0,1-5.5,2.21L783,629a37.42,37.42,0,0,0,11-9l-2.56-1.06a.76.76,0,0,1-.35.63h1.52l.32.68c.4-1.88-2.49-2.68-2.9-.79a2.47,2.47,0,0,0,1.06,2.7,1.46,1.46,0,0,0,1.52,0,4,4,0,0,0,1.83-3.22,1.52,1.52,0,0,0-2.57-1.06,35.1,35.1,0,0,1-10.39,8.5,1.51,1.51,0,0,0,1.15,2.75,25.62,25.62,0,0,0,6.21-2.52L787,624.25a3.43,3.43,0,0,1-3.25.57v2.9a10.27,10.27,0,0,0,4.65-3.72,37.2,37.2,0,0,1,4.39-4.66,13,13,0,0,0,3.67-5.05c.68-1.81.9-4,2.36-5.36a1.53,1.53,0,0,0,0-2.12A10.16,10.16,0,0,0,795,603.9a1.57,1.57,0,0,0-1.82.23c-1.27,1.37-.73,3.19.52,4.35.65.61.95.6.69,1.49s-.65,2-1,3c-.59,1.84,2.3,2.63,2.89.79Z"/><path d="M732.18,495.29a4.19,4.19,0,0,1-2.35,2.27c-1.76.68-1.06,3.51.8,2.9l5.66-1.87a2.91,2.91,0,0,0,1.79-1.15,2,2,0,0,0,.2-1.41,2.87,2.87,0,0,0-.22-.62c-.19-.5-.33-.33-.42.52l-1.06.44.18,0-1.5-1.5.78,11.44,1.89-1.45a35.47,35.47,0,0,1-8.88-5l-.76,2.79a5.23,5.23,0,0,1,2.94,1.05l1.15-2.74a37.33,37.33,0,0,0-15.92-1.51,1.55,1.55,0,0,0-1.5,1.5,1.51,1.51,0,0,0,1.5,1.5,35.25,35.25,0,0,1,15.13,1.4c1.72.55,2.46-1.81,1.15-2.74a8,8,0,0,0-4.45-1.46c-1.64,0-1.83,2-.76,2.8a37.71,37.71,0,0,0,9.61,5.34,1.5,1.5,0,0,0,1.9-1.44l-.78-11.44a1.51,1.51,0,0,0-1.5-1.5,1.84,1.84,0,0,0-1.79,1.36c-.24.88.2,1.33.42,2.12V496c.08-.39.86-.48.1-.34a6.59,6.59,0,0,0-.75.25l-1.7.56-3.21,1.06.8,2.9a7.64,7.64,0,0,0,4.45-4.37,1.51,1.51,0,0,0-1.05-1.84,1.54,1.54,0,0,0-1.85,1Z"/><path d="M688.7,671.81a28.86,28.86,0,0,1-11.8-3.3l-.75,2.79,11.54,1.23v-3c-6.79.4-15.18-.14-19-6.78l-1.69,2.2A54.13,54.13,0,0,1,678.36,669l1.15-2.74a122.47,122.47,0,0,1-20.38-9.4c-1.7-1-3.08,1.51-1.52,2.59A154.6,154.6,0,0,0,671,667.78a1.51,1.51,0,0,0,2.05-2,22.46,22.46,0,0,0-7.87-8,1.51,1.51,0,0,0-2.05,2l4.67,8.36,1.3-2.25a28.74,28.74,0,0,1-14.91-6.1l-1.06,2.56c2.23-.21,4.07,1.23,5.91,2.28s4,2,6.37,1.52c1.47-.27,1.38-2.56,0-2.89a67.08,67.08,0,0,1-16-6.09c-2.35-1.27-4.56-3-7.08-3.88a9.51,9.51,0,0,0-3.93-.41c-1.35.11-2.95.5-4.26-.05l-.75,2.79a17,17,0,0,0,9-2.56,1.52,1.52,0,0,0-.76-2.8,12.24,12.24,0,0,1-7.33-3.83L633.19,649a22.7,22.7,0,0,1,7,.54,1.51,1.51,0,0,0,.8-2.9q-8-2.85-15.78-6.24l-.76,2.79a30.88,30.88,0,0,1,10.16,1.33l.8-2.9-7.14-2a1.5,1.5,0,0,0-1.69.69,3.29,3.29,0,0,1-1.94,1.77,1.51,1.51,0,0,0,0,2.89l5.75,1.4.4-2.94-7.43-.85-.67-.08c-.42-.15-.45-.1-.08.14a8.76,8.76,0,0,1,.38-1.94l.77-3.88-2.21.9a66.54,66.54,0,0,1,11,6.37c1.38,1,3.07-1.22,1.81-2.35l-9-8.08a1.5,1.5,0,0,0-2.35,1.81,3.7,3.7,0,0,1,.25,1.86l2.8-.76a28.56,28.56,0,0,1-3.9-13.74,1.51,1.51,0,0,0-2.95-.4,35.91,35.91,0,0,0-2.62,13.42c0,1.65,2.59,2.09,2.94.4a16.16,16.16,0,0,0-.16-7.51,1.52,1.52,0,0,0-2.51-.67,11.48,11.48,0,0,0,5.34,19.32,1.51,1.51,0,0,0,.8-2.9,8.56,8.56,0,0,1-4-14.29l-2.5-.67a12.74,12.74,0,0,1,.16,5.92l3,.4a33.31,33.31,0,0,1,2.52-12.62l-3-.4a31.82,31.82,0,0,0,4.3,15.25,1.51,1.51,0,0,0,2.8-.75,6.88,6.88,0,0,0-.66-3.37l-2.36,1.82,9,8.08,1.82-2.36a66.87,66.87,0,0,0-11-6.37,1.53,1.53,0,0,0-2.21.9l-1,5.33c-.27,1.42-.36,2.86,1.08,3.68,1.27.74,3.2.62,4.62.79l5.28.6c1.69.19,2-2.56.4-2.95l-5.75-1.4V645a6.29,6.29,0,0,0,3.73-3.15l-1.7.69,7.14,2a1.51,1.51,0,0,0,.8-2.9,33.59,33.59,0,0,0-11-1.43c-1.35.05-2.21,2.16-.76,2.8q8.14,3.55,16.5,6.55l.8-2.9a26,26,0,0,0-7.82-.64,1.52,1.52,0,0,0-1.06,2.56,15.44,15.44,0,0,0,9.45,4.71l-.75-2.79a14,14,0,0,1-7.44,2.15c-1.37,0-2.2,2.19-.76,2.8a8.33,8.33,0,0,0,4,.62,13.09,13.09,0,0,1,4.28,0,13.79,13.79,0,0,1,3.49,1.76c1.26.78,2.54,1.51,3.85,2.21a70.46,70.46,0,0,0,16.36,6.18v-2.89c-2,.37-3.87-1.12-5.46-2.05-1.84-1.08-3.83-2.07-6-1.86-1.14.11-2.18,1.66-1.06,2.56a32.3,32.3,0,0,0,17,7,1.51,1.51,0,0,0,1.29-2.26l-4.67-8.36-2,2a19.36,19.36,0,0,1,6.79,7l2-2a154.43,154.43,0,0,1-13.42-8.32l-1.52,2.59a125.92,125.92,0,0,0,21.11,9.7c1.59.57,2.68-2,1.15-2.74a57.11,57.11,0,0,0-12-4.36,1.51,1.51,0,0,0-1.69,2.2c4.32,7.62,13.63,8.73,21.54,8.27a1.5,1.5,0,0,0,0-3l-11.54-1.23c-1.5-.16-2,2.13-.76,2.8a32.32,32.32,0,0,0,13.31,3.71c1.93.12,1.93-2.88,0-3Z"/><path d="M617.72,628.6a1.5,1.5,0,0,0,0-3,1.5,1.5,0,0,0,0,3Z"/><path d="M619,597.82l-3,8.36a1.5,1.5,0,0,0,1,1.84,1.54,1.54,0,0,0,1.84-1l3-8.35a1.51,1.51,0,0,0-1-1.85,1.55,1.55,0,0,0-1.85,1.05Z"/><path d="M682.71,680.21l-4.33-3.28-1.16,2.74,8.78,2.54.8-2.89a37.68,37.68,0,0,0-12.61-.84c-1.35.15-2.19,2-.76,2.8A79.27,79.27,0,0,0,695.21,689c1.35.27,2.66-1.43,1.46-2.5-.23-.2-.12.11-.08-.15a1.4,1.4,0,0,1,.29-.57A2.89,2.89,0,0,1,698,685a10.2,10.2,0,0,0,2.73-1.68c.85-.85,1.42-2.07.7-3.15a5.45,5.45,0,0,0-2.56-1.9,18.35,18.35,0,0,1-3.1-1.18c-.29-.19-1-.64-.94-1.05s.7-.63,1.08-.73a21,21,0,0,1,9-.19c1.53.28,2.82-2,1.15-2.74a33,33,0,0,0-7.59-2.39l-.4,2.94a11.54,11.54,0,0,1,4.42,1.46l.36-2.74-10.23,3.27c-1.53.49-1.37,3.12.39,3,3.32-.33,8-1.23,8.33-5.33.25-2.89-2.41-6.24-5.47-4.51a4.52,4.52,0,0,0-2.08,4.2,7.08,7.08,0,0,0,2.87,4.71c2.51,2.11,6.73,4.1,9.14.78a1.51,1.51,0,0,0-.9-2.21,11.55,11.55,0,0,0-11.8,3.42,1.53,1.53,0,0,0,.3,2.36,14.35,14.35,0,0,0,11.34,1.39,1.51,1.51,0,0,0-.39-2.95A41.87,41.87,0,0,0,694,681.11c-1.33.36-1.52,2.68,0,2.9a35.08,35.08,0,0,0,13.69-.7,1.51,1.51,0,0,0,0-2.89,26.85,26.85,0,0,0-11.53.13,1.52,1.52,0,0,0,0,2.9,18.88,18.88,0,0,0,12.56-.67,1.5,1.5,0,0,0-.8-2.89l-2.62.49,1.16,2.74a10.21,10.21,0,0,1,5.59-.77v-2.9l-3.75,1.11a1.5,1.5,0,0,0,.4,2.94,30.28,30.28,0,0,0,7-.35l-.8-2.9-6,1.43.8,2.89L722,680.44l-1.46-.38a5.67,5.67,0,0,0,6.82.74c1.4-.85.49-3.35-1.16-2.74l-5.1,1.86,1.7,2.2a4,4,0,0,1,3-2.43l-.39-3a151.71,151.71,0,0,1-17.46,2.77l.4,3a101,101,0,0,0,10.48-2.18l-1.15-2.75-5.35,2.77c-1.57.82-.44,3.07,1.16,2.74l8-1.66-.8-2.89-3.37,1.22.79,2.89c5.1-2.11,11.16-1.47,15.86-4.6,4.88-3.26,5.66-9.23,8.61-13.89a1.5,1.5,0,0,0-2.35-1.82,49.08,49.08,0,0,1-26.77,15c-1.59.31-1.24,2.41,0,2.89a14.6,14.6,0,0,0,13-1.34,1.51,1.51,0,0,0-1.16-2.74,49.66,49.66,0,0,1-21.12-.61l-.4,3,10.44-.05c1.79,0,1.9-2.35.4-2.95a29.42,29.42,0,0,0-7-1.78c-1.76-.22-4.24-.68-5.66.7s-.81,3.2-.07,4.72c.64,1.33,1.29,3.26-.62,4a1.53,1.53,0,0,0-.36,2.75,15.35,15.35,0,0,0,7.12,2.44l-.4-2.95a10.72,10.72,0,0,1-8.28-.81l-.75,2.8,10.71-.22a1.52,1.52,0,0,0,1.06-2.56,10.86,10.86,0,0,0-8.27-3.82c-1.63,0-2.11,2.71-.4,2.95l6.17.85c1,.13,1.93.24,2.88.4a8.2,8.2,0,0,0,.81.16s0-.31,0-.32-.12.21-.21.29a7.12,7.12,0,0,0-2.26,2.9,3.51,3.51,0,0,0,1.45,3.81c3,2.19,7.11-.66,9.72-2.31a61.51,61.51,0,0,0,8.36-6.46c3-2.73,5.83-5.67,8.64-8.6l-2.36-1.82a19.51,19.51,0,0,1-5.17,5.39,1.51,1.51,0,0,0,.75,2.79c3.33.15,5.27-3.6,7-5.89l7.1-9.48c1-1.37-1.21-3-2.36-1.82a47.49,47.49,0,0,1-39.75,14.56c-1.74-.2-1.94,2.45-.39,2.94l10.9,3.46c1.85.58,2.64-2.31.8-2.89l-10.91-3.46-.4,3a50.27,50.27,0,0,0,41.87-15.44L742,663.86l-5.92,7.91-2.81,3.75c-.66.89-1.5,2.29-2.76,2.23l.76,2.8a23.2,23.2,0,0,0,6.25-6.47,1.51,1.51,0,0,0-2.36-1.81c-5.91,6.18-12,12.55-19.7,16.48-.81.41-2.2,1.21-3.1.61-.69-.46-.19-.86.23-1.29,1-1,2.25-2.09,1.89-3.7-.46-2.06-2.58-2.3-4.32-2.54l-7.65-1.05-.4,2.94a8,8,0,0,1,6.15,2.94l1.06-2.56-10.71.22a1.51,1.51,0,0,0-.76,2.79,13.86,13.86,0,0,0,10.59,1.12,1.51,1.51,0,0,0-.4-3,12.13,12.13,0,0,1-5.6-2l-.36,2.74a5.27,5.27,0,0,0,3.33-3.46,6,6,0,0,0-.76-4.6,3.72,3.72,0,0,1-.48-1.08c0-.42-.27-.23.13-.36a8.52,8.52,0,0,1,2.88.16,26.09,26.09,0,0,1,6.61,1.73l.4-3-10.44.05a1.51,1.51,0,0,0-.4,2.95A53.25,53.25,0,0,0,726,679l-1.16-2.74a11.76,11.76,0,0,1-10.64,1v2.89a51.82,51.82,0,0,0,28.09-15.8L740,662.6c-2.63,4.17-3.38,10.23-7.84,13s-10.1,2.14-14.83,4.11c-1.74.72-1.06,3.56.79,2.89l3.38-1.22a1.5,1.5,0,0,0-.8-2.89l-8,1.66,1.16,2.74,5.34-2.77c1.53-.79.47-3.17-1.15-2.74a96.19,96.19,0,0,1-10.49,2.18c-1.65.26-1.28,3.12.4,3a158.14,158.14,0,0,0,18.25-2.87c1.62-.36,1.3-3.18-.4-2.95a7,7,0,0,0-5.63,3.92c-.5,1.06.35,2.69,1.69,2.2L727,681l-1.16-2.74a2.59,2.59,0,0,1-3.18-.28,1.49,1.49,0,0,0-1.46-.38L709,681.68a1.5,1.5,0,0,0,.8,2.89l6-1.42c1.91-.46,1.06-3.2-.8-2.9a26.69,26.69,0,0,1-6.25.25l.4,3,3.74-1.1c1.31-.39,1.55-2.67,0-2.9a14,14,0,0,0-7.9,1.08c-1.65.73-.4,3,1.16,2.74l2.62-.49-.8-2.89a16.27,16.27,0,0,1-11,.66v2.9a23.26,23.26,0,0,1,9.93-.14v-2.89a31.17,31.17,0,0,1-12.09.69V684a37.87,37.87,0,0,1,9.53-1.29l-.4-3a11.25,11.25,0,0,1-9-1.08l.3,2.36a8.54,8.54,0,0,1,8.89-2.65l-.9-2.21c-.88,1.22-3.54-.66-4.28-1.26a6,6,0,0,1-2-2.32c-.2-.53-.28-1.76.45-2,1-.3,1.1,1.62.86,2.17-.75,1.74-3.64,1.92-5.23,2.08l.4,2.94,10.24-3.27a1.52,1.52,0,0,0,.35-2.74,15.14,15.14,0,0,0-5.93-1.87c-1.66-.18-2.06,2.65-.39,3a30.12,30.12,0,0,1,6.87,2.09l1.15-2.74a25.83,25.83,0,0,0-7.6-.31c-2,.22-4.68.46-5.81,2.41s0,4,1.66,5.14a9.52,9.52,0,0,0,2.65,1.17,4.16,4.16,0,0,1,2.43,1.31l-.15-1.15c-.26.73-1.29,1.07-1.92,1.38a6.44,6.44,0,0,0-2.29,1.63c-1.17,1.39-1.61,3.5-.12,4.83l1.46-2.51a76.74,76.74,0,0,1-21-7.43l-.76,2.79a35.28,35.28,0,0,1,11.81.73,1.5,1.5,0,0,0,.8-2.89L678,676.78c-1.75-.51-2.43,1.77-1.16,2.74l4.33,3.28c1.54,1.17,3-1.44,1.52-2.59Z"/><g class="cls-10"><path d="M282.5,94.52Q256,177,242.5,281l-55.69,11.69-11.69-89.23-12,85.23L113,291.75q-11.4-92.61-41.24-189.23L126.2,91.13,143.12,185,154.5,85l45.23-3.69L213,191.13,229.58,83.44Z"/><path d="M343.12,85.59q-5.55,54.16-6.47,92.93l27.08-4.62-.61-79.38,61.23-8.93q-10.78,113.85-3.7,193.23L364,291.75l-.31-76.31q-9.23,1.84-27.69,5.23.91,34.16,3.38,58.15l-56,12.93L282.19,94.52Z"/><path d="M438.19,94.82l28.62-4.61,28-4.31q-5.55,55.08-6.47,102.46t2.16,87.08l-25.85,6.77-26.15,5.84Z"/><path d="M650.19,135.13q-35.7,1.85-51.39,3.08-2.46,33.54,7.7,144.61l-60,12.31-.31-152q-4.62.31-20.92,2.46-14.78,1.84-24.31,2.77l3.69-52.61L641.27,82.82Z"/><path d="M739.42,135.13q-15.07,1.85-28.92,3.39-.93,9.54-1.24,13.84l-.92,13.54,23.08-3.38,22.77-4.31,2.15,19.08,2.77,19.38q-22.77,3.69-29.54,4.62-12,2.15-21.23,3.69l-.61,25.54,31.07-4.31,30.77-4.31L773,247.13,776,272.36q-24,1.54-53.84,6.16-30.16,5.24-66.46,12.92-.32-16.62-.62-48.62l-.61-49.53q-.63-64.62-.93-97.85L708.65,89,764,82.52l3.39,24.92,3.38,25.23Q754.2,133.9,739.42,135.13Z"/><path d="M937.26,81.29q46.77,0,53.85,36,3.38,43.08-40,70.76,6.76,10.47,50.46,62.77-17.85,16-45.54,39.7L902.8,213q-.31,37.23,2.16,67.69l-50.77,12.92q4.3-148-1.23-198.77Q903.72,81.29,937.26,81.29Zm-33.54,68.3-.92,19.7A112,112,0,0,0,923.42,157q16.3-12.61,14.46-21.85-1.54-6.76-11.08-7.38-8.31-.31-22.15,2.77Q903.72,140.67,903.72,149.59Z"/><path d="M1016.65,87.13l57.23,4.62-9.85,48-8.61,48.3c0,2.26-.73,7.49-2.16,15.7a98.57,98.57,0,0,0-2.15,18.15q0,21.85,20,21.85,14.15,0,22.77-9.85,7.38-8.31,7.38-22.77L1088,83.44l56.31,3.38,5.54,68,4.92,68.62q2.46,33.23-24,49.85-20,12.3-65.54,17.53-42.46,4.62-58.77-19.38-13.54-20.92-8.31-59.39Z"/><path d="M1296.65,120.67q1.85,9.54,3.07,21.54l-24,8-24,7.69q-2.46-12.61-12.3-12.61-12,0-22.47,11.07-6.77,8.92-4,16.62,2.16,4.92,14.77,4.92a97.55,97.55,0,0,0,15.7-1.54,162.66,162.66,0,0,1,26.46-2.46q28.3,0,36.3,16a46.83,46.83,0,0,1,4.31,10.46q3.69,17.23-8.92,37.54-15.08,26.78-49.54,44.62a76.77,76.77,0,0,1-37.23,9.53q-17.85,0-36.62-7.69,4.62-16.61,16.93-48.92,12.3,6.76,24.31,6.77a32,32,0,0,0,11.07-2.16,69.19,69.19,0,0,0,18.77-6.15q11.68-5.53,10.46-11.69-1.23-7.38-15.38-7.39-9.24,0-26.77,3.08-17.53,4-27.08,4-12.62,0-19.69-4.61-15.39-6.76-16-22.16-2.46-29.83,32.62-69.84,36-40.92,68.61-42.77Q1288,81,1296.65,120.67Z"/><path d="M1453,120.67q1.85,9.54,3.08,21.54l-24,8-24,7.69q-2.47-12.61-12.31-12.61-12,0-22.46,11.07-6.78,8.92-4,16.62,2.15,4.92,14.77,4.92a97.44,97.44,0,0,0,15.69-1.54,162.76,162.76,0,0,1,26.46-2.46q28.3,0,36.31,16a47.3,47.3,0,0,1,4.31,10.46q3.69,17.23-8.93,37.54-15.07,26.78-49.54,44.62a76.75,76.75,0,0,1-37.23,9.53q-17.83,0-36.61-7.69,4.62-16.61,16.92-48.92,12.3,6.76,24.31,6.77a32,32,0,0,0,11.08-2.16,69.3,69.3,0,0,0,18.77-6.15q11.68-5.53,10.46-11.69-1.23-7.38-15.39-7.39-9.23,0-26.77,3.08-17.53,4-27.07,4-12.63,0-19.7-4.61-15.39-6.76-16-22.16-2.46-29.83,32.62-69.84,36-40.92,68.61-42.77Q1444.34,81,1453,120.67Z"/><path d="M1476.64,94.82l28.61-4.61,28-4.31q-5.54,55.08-6.46,102.46t2.16,87.08l-25.85,6.77L1477,288.05Z"/><path d="M1537.56,280.36a1372.61,1372.61,0,0,0,43.69-188l73.54-10.15q12.62,83.7,46.77,193.54l-56,12.92-7.38-34.46-36.62,4L1595.1,293Zm92.62-62.46-12.62-73.23-12.31,73.54Z"/><path d="M1704.64,89.29l56.61-9.54q1.23,8.93,4.62,24.61,8.91,37.54,17.54,65.23,5.22,16.32,11.07,25.54V89l56.93-9.23q-11.7,110.46-4.93,190.15l-51.38,12.31q-.31-1.23-6.77-9.85l-26.46-40.31q-6.46-9.53-8-12.92,0,33.24,2.46,63.08l-51.39,12.61Z"/></g><rect class="cls-11" x="278.58" y="699.9" width="321.33" height="120.48" transform="translate(851.9 -14.76) rotate(58.06)"/></g></g></svg>
