<?xml version="1.0" standalone="no"?>
<!DOCTYPE svg PUBLIC "-//W3C//DTD SVG 20010904//EN"
 "http://www.w3.org/TR/2001/REC-SVG-20010904/DTD/svg10.dtd">
<svg version="1.0" xmlns="http://www.w3.org/2000/svg"
 width="260.000000pt" height="260.000000pt" viewBox="0 0 260.000000 260.000000"
 preserveAspectRatio="xMidYMid meet">
<metadata>
Created by potrace 1.11, written by Peter Selinger 2001-2013
</metadata>
<g transform="translate(0.000000,260.000000) scale(0.100000,-0.100000)"
fill="#000000" stroke="none">
<path d="M1115 1730 c-110 -209 -202 -379 -205 -380 -3 0 -39 65 -80 145 -41
80 -79 144 -83 142 -4 -1 -109 -241 -232 -532 l-224 -530 535 -3 c293 -1 774
-1 1068 0 l535 3 -264 409 c-145 225 -269 414 -275 420 -7 7 -32 -12 -85 -64
-41 -41 -76 -72 -78 -69 -3 2 -94 192 -203 422 -109 229 -200 417 -203 417 -4
0 -96 -171 -206 -380z m329 -30 c64 -135 116 -250 116 -256 0 -6 -11 -21 -25
-34 l-24 -23 -44 94 -43 93 -54 -87 c-29 -48 -56 -89 -59 -92 -4 -2 -31 35
-61 81 -30 46 -58 84 -62 84 -3 0 -28 -39 -54 -87 l-47 -87 -23 29 -22 28 54
101 c30 56 91 172 137 258 45 86 85 154 88 150 3 -4 59 -117 123 -252z m-534
-500 c3 0 25 39 49 87 l45 87 25 -34 c14 -19 35 -45 47 -59 l21 -24 47 88 48
87 57 -86 c31 -47 58 -86 61 -86 3 0 27 37 55 81 l49 82 39 -84 38 -83 54 59
53 60 53 -112 c29 -62 57 -113 63 -113 6 0 45 34 86 75 l76 76 213 -331 c117
-182 211 -333 209 -336 -3 -2 -432 -3 -955 -2 l-950 3 181 427 180 428 76
-145 c41 -80 77 -145 80 -145z"/>
</g>
</svg>
